<?xml version="1.0" standalone="no"?>
<!DOCTYPE svg PUBLIC "-//W3C//DTD SVG 20010904//EN"
 "http://www.w3.org/TR/2001/REC-SVG-20010904/DTD/svg10.dtd">
<svg version="1.0" xmlns="http://www.w3.org/2000/svg"
 width="1012.000000pt" height="1012.000000pt" viewBox="0 0 1012.000000 1012.000000"
 preserveAspectRatio="xMidYMid meet">
<metadata>
Created by potrace 1.11, written by Peter Selinger 2001-2013
</metadata>
<g transform="translate(0.000000,1012.000000) scale(0.100000,-0.100000)"
fill="#000000" stroke="none">
<path d="M3301 9662 c-1 -7 -5 -11 -10 -7 -5 3 -12 1 -16 -5 -4 -6 -12 -7 -18
-3 -20 12 -47 14 -47 2 0 -5 -4 -7 -10 -4 -5 3 -10 1 -10 -4 0 -13 -22 -10
-32 4 -5 6 -8 6 -8 -2 0 -6 -13 -10 -30 -9 -21 2 -30 -2 -30 -13 0 -11 -4 -10
-15 5 -10 13 -13 14 -10 3 5 -12 -2 -16 -31 -17 -20 -1 -43 -7 -52 -14 -13
-11 -14 -11 -8 1 6 9 1 8 -16 -3 -14 -9 -28 -13 -31 -10 -4 4 -13 1 -21 -5 -8
-7 -29 -13 -46 -13 -22 -1 -29 -5 -26 -15 3 -8 2 -11 -4 -8 -5 3 -25 -1 -45
-9 -19 -8 -35 -12 -35 -9 0 3 -7 0 -15 -7 -8 -6 -20 -8 -26 -4 -8 4 -9 3 -5
-4 4 -7 2 -12 -4 -12 -6 0 -18 -6 -26 -14 -8 -8 -23 -13 -34 -11 -13 2 -20 -2
-20 -11 0 -8 -10 -14 -26 -14 -14 0 -23 -4 -19 -10 4 -6 -5 -10 -19 -10 -16 0
-26 -6 -26 -15 0 -9 -6 -12 -15 -9 -8 4 -17 -1 -21 -10 -4 -11 -13 -15 -27
-10 -16 5 -19 3 -14 -10 4 -10 1 -16 -8 -16 -8 0 -15 -5 -15 -11 0 -5 -4 -8
-9 -5 -4 3 -16 -3 -26 -14 -10 -11 -24 -20 -32 -20 -8 0 -11 -4 -8 -10 3 -5
-3 -10 -15 -10 -12 0 -19 -4 -16 -9 4 -5 -7 -15 -23 -22 -16 -7 -28 -16 -25
-20 2 -4 -5 -10 -16 -14 -11 -4 -18 -11 -15 -16 6 -8 -8 -13 -27 -10 -5 0 -7
-5 -5 -12 1 -6 -4 -11 -11 -9 -8 1 -11 -2 -7 -8 3 -5 -2 -10 -12 -10 -15 0
-16 -2 -3 -10 10 -6 11 -10 3 -10 -19 0 -115 -98 -108 -110 3 -6 -3 -10 -15
-10 -12 0 -19 -4 -15 -9 3 -6 -3 -14 -12 -20 -10 -6 -14 -11 -8 -11 5 0 -1 -7
-13 -16 -12 -8 -20 -20 -17 -25 4 -5 1 -9 -4 -9 -6 0 -11 -7 -11 -15 0 -9 -7
-18 -15 -21 -8 -4 -13 -10 -10 -14 3 -5 -4 -12 -16 -15 -17 -6 -18 -9 -8 -16
11 -6 10 -9 -4 -15 -9 -3 -17 -15 -17 -25 0 -11 -7 -19 -17 -19 -9 0 -13 -3
-10 -6 4 -4 -3 -20 -15 -37 -12 -17 -16 -27 -8 -22 9 5 11 4 6 -3 -4 -7 -14
-12 -21 -12 -9 0 -12 -6 -9 -15 4 -8 1 -15 -6 -15 -6 0 -8 -4 -5 -10 3 -5 2
-10 -4 -10 -6 0 -8 -7 -4 -15 3 -10 0 -15 -8 -13 -8 2 -13 -3 -11 -9 1 -7 -3
-13 -9 -13 -5 0 -7 -4 -4 -10 3 -5 1 -10 -4 -10 -6 0 -11 -7 -11 -16 0 -8 -4
-12 -10 -9 -6 4 -10 -7 -10 -25 0 -18 -4 -29 -10 -25 -5 3 -10 -1 -10 -9 0 -9
-5 -16 -11 -16 -5 0 -7 -4 -4 -10 3 -5 1 -10 -4 -10 -6 0 -10 -3 -10 -7 1 -5
1 -15 0 -23 -1 -13 -2 -13 -11 0 -8 12 -10 10 -10 -10 -1 -29 -23 -63 -35 -52
-5 4 -5 1 -1 -5 8 -15 -17 -56 -28 -45 -4 4 -6 2 -4 -4 4 -14 -24 -84 -34 -84
-4 0 -8 -7 -8 -16 0 -8 -5 -12 -10 -9 -6 4 -10 3 -9 -2 1 -4 -1 -21 -6 -36 -6
-21 -10 -25 -16 -15 -7 10 -9 10 -10 -2 -1 -8 -1 -19 0 -24 1 -5 -6 -17 -15
-27 -9 -10 -13 -22 -9 -28 4 -7 0 -8 -11 -4 -12 4 -15 3 -10 -5 4 -7 2 -20 -4
-29 -11 -17 -11 -17 -6 0 3 11 2 15 -4 12 -6 -3 -10 -15 -10 -26 0 -10 -6 -19
-12 -19 -9 0 -8 -4 2 -10 13 -8 12 -10 -3 -10 -9 0 -16 -3 -15 -7 1 -5 -3 -18
-10 -29 -6 -12 -8 -25 -4 -29 4 -5 -1 -5 -11 -2 -10 4 -16 3 -12 -2 3 -5 1
-12 -5 -16 -6 -4 -8 -11 -5 -16 4 -5 1 -9 -4 -9 -6 0 -11 -5 -11 -11 0 -6 -7
-17 -15 -26 -8 -8 -13 -18 -10 -23 3 -4 -2 -10 -10 -13 -8 -4 -12 -15 -10 -26
3 -15 0 -18 -12 -14 -13 5 -15 2 -10 -16 3 -14 0 -24 -9 -28 -8 -3 -14 -12
-14 -20 0 -8 -4 -12 -9 -9 -5 3 -11 -8 -15 -25 -4 -20 -10 -28 -18 -23 -8 5
-9 2 -5 -9 3 -10 2 -17 -4 -17 -6 0 -7 -4 -4 -10 3 -5 -1 -10 -10 -10 -9 0
-14 -4 -10 -9 3 -6 -10 -34 -28 -63 -19 -29 -32 -59 -30 -66 3 -7 -1 -11 -8
-10 -7 2 -15 -6 -17 -17 -2 -11 -12 -29 -21 -40 -10 -11 -31 -46 -47 -77 -16
-32 -36 -58 -44 -58 -12 0 -12 -2 -1 -9 10 -6 10 -10 1 -16 -6 -4 -9 -14 -5
-22 4 -12 2 -13 -8 -5 -10 8 -13 6 -14 -11 -1 -12 -8 -26 -16 -32 -8 -5 -13
-18 -11 -28 1 -9 -1 -15 -6 -12 -7 4 -22 -18 -24 -37 -1 -4 -9 -17 -19 -28 -9
-11 -17 -28 -17 -38 0 -14 -2 -15 -10 -2 -8 12 -10 9 -10 -12 0 -16 -4 -28
-10 -28 -5 0 -9 -6 -7 -12 1 -7 -4 -12 -11 -10 -8 1 -11 -2 -7 -8 3 -5 0 -10
-7 -10 -9 0 -9 -3 2 -10 13 -9 7 -14 -12 -11 -5 0 -7 -2 -6 -7 3 -14 -22 -62
-32 -62 -5 0 -9 -3 -8 -7 3 -15 -32 -83 -43 -83 -5 0 -7 -4 -4 -10 3 -5 1 -10
-4 -10 -6 0 -11 -12 -11 -27 0 -22 -2 -25 -10 -13 -8 12 -10 9 -10 -12 0 -15
-5 -30 -12 -34 -7 -5 -8 -3 -3 6 5 8 4 11 -3 7 -5 -4 -8 -16 -5 -27 4 -14 0
-20 -11 -20 -9 0 -16 -8 -16 -18 0 -10 -11 -29 -25 -42 -13 -12 -22 -26 -20
-31 8 -11 -6 -40 -16 -33 -5 3 -9 -4 -9 -14 0 -11 -7 -25 -15 -32 -8 -7 -15
-19 -15 -27 0 -8 -5 -11 -10 -8 -6 4 -10 3 -9 -2 4 -24 -3 -45 -21 -60 -11
-10 -20 -24 -20 -31 0 -7 -7 -20 -15 -29 -8 -8 -13 -19 -9 -24 3 -5 2 -8 -3
-7 -4 2 -9 -1 -11 -7 -2 -5 -10 -17 -17 -25 -7 -8 -15 -22 -17 -30 -5 -22 -22
-39 -33 -32 -5 3 -4 -2 4 -11 9 -11 10 -17 2 -17 -6 0 -11 -7 -11 -15 0 -7 -8
-18 -17 -24 -10 -5 -17 -12 -15 -15 6 -14 1 -27 -8 -21 -5 3 -10 -3 -10 -14 0
-12 -5 -21 -11 -21 -6 0 -9 -6 -6 -14 3 -8 -1 -17 -9 -20 -8 -3 -14 -11 -14
-18 0 -8 -9 -21 -20 -31 -12 -10 -17 -23 -13 -33 4 -12 3 -15 -6 -10 -8 6 -11
2 -9 -10 2 -11 -2 -18 -9 -17 -7 2 -12 0 -12 -5 4 -22 -2 -42 -11 -37 -5 3 -7
0 -4 -8 3 -8 1 -18 -5 -21 -6 -4 -8 -13 -4 -21 3 -10 1 -13 -8 -10 -10 4 -14
-3 -16 -21 -1 -25 -4 -34 -32 -94 -7 -14 -14 -35 -15 -45 -2 -11 -8 -19 -14
-18 -5 1 -8 -11 -7 -28 1 -16 -4 -36 -12 -44 -11 -12 -12 -15 -1 -15 10 0 10
-2 1 -8 -7 -4 -13 -27 -14 -50 -2 -23 -7 -42 -13 -42 -6 0 -5 -5 2 -12 7 -7
12 -17 12 -22 0 -6 -5 -4 -10 4 -11 17 -10 19 -14 -75 -1 -27 -5 -56 -9 -62
-5 -7 -5 -13 0 -13 4 0 1 -5 -7 -10 -11 -7 -11 -10 -2 -10 8 0 10 -5 5 -12 -9
-16 -11 -215 -1 -231 3 -6 2 -20 -4 -30 -7 -13 -7 -22 1 -30 7 -7 7 -16 -1
-30 -8 -16 -7 -19 3 -15 11 4 14 -9 14 -58 0 -35 4 -64 8 -64 5 0 5 -5 2 -10
-4 -6 -2 -16 3 -23 5 -7 8 -22 7 -35 -1 -12 2 -22 6 -22 4 0 5 -9 2 -20 -3
-12 0 -20 6 -20 7 0 9 -4 6 -10 -3 -5 -1 -10 6 -10 9 0 9 -3 0 -14 -9 -10 -9
-16 -1 -21 6 -4 9 -14 6 -22 -4 -9 -2 -11 6 -7 8 5 9 2 5 -9 -3 -9 -1 -19 4
-23 6 -3 8 -15 6 -26 -4 -14 -2 -17 7 -9 8 7 12 5 13 -10 1 -11 -2 -17 -7 -14
-4 3 -3 -6 3 -20 7 -14 15 -25 20 -25 4 0 7 -12 7 -26 0 -14 4 -23 10 -19 6 3
10 -3 10 -14 0 -12 6 -21 13 -21 8 0 7 -4 -3 -10 -10 -6 -11 -10 -3 -10 7 0
15 -11 19 -25 3 -14 10 -22 15 -19 8 5 14 -17 10 -39 -1 -4 4 -14 11 -22 31
-34 36 -43 31 -49 -4 -3 0 -6 7 -6 7 0 11 -3 7 -6 -3 -4 1 -13 9 -21 8 -9 12
-23 9 -31 -3 -9 -3 -13 1 -9 4 4 16 -7 26 -24 11 -17 17 -33 14 -36 -3 -3 6
-15 20 -27 14 -11 26 -31 27 -43 0 -12 7 -25 14 -27 7 -3 13 -12 13 -21 0 -8
5 -15 11 -15 5 0 8 -4 5 -9 -3 -5 1 -11 9 -15 8 -3 15 -17 15 -31 0 -15 4 -24
10 -20 6 3 10 -3 10 -13 0 -11 7 -23 16 -26 9 -3 14 -13 11 -20 -3 -8 1 -17 9
-20 8 -3 14 -16 14 -28 0 -19 2 -20 10 -8 8 13 10 12 11 -5 1 -11 1 -29 0 -40
-2 -15 0 -17 7 -6 11 16 21 3 17 -22 -2 -9 1 -15 5 -12 5 3 16 -10 26 -30 9
-20 21 -32 28 -28 8 4 7 2 -1 -7 -9 -10 -6 -18 13 -37 13 -13 22 -29 19 -34
-4 -5 -2 -9 4 -9 10 0 27 -39 23 -53 -1 -5 2 -6 8 -2 5 3 10 1 10 -5 0 -6 7
-18 15 -27 8 -8 13 -19 10 -24 -4 -5 -1 -9 6 -9 7 0 10 -3 6 -6 -3 -3 3 -15
14 -27 10 -11 19 -29 19 -39 0 -11 4 -16 10 -13 6 3 10 -3 10 -13 0 -11 7 -25
15 -32 8 -7 13 -15 10 -19 -2 -4 4 -13 15 -21 10 -7 16 -18 14 -24 -3 -7 5
-21 16 -33 11 -12 20 -29 20 -38 0 -9 4 -14 9 -11 5 3 12 -5 15 -19 4 -14 11
-25 16 -25 6 0 10 -12 10 -26 0 -14 4 -23 10 -19 6 3 10 -1 10 -9 0 -9 6 -16
13 -16 8 0 7 -4 -3 -10 -13 -8 -12 -10 3 -10 10 0 16 -4 13 -8 -3 -5 4 -19 15
-30 11 -12 16 -22 12 -22 -4 0 -2 -4 5 -9 7 -4 14 -17 15 -29 0 -12 7 -24 15
-27 8 -3 12 -12 9 -20 -4 -9 -1 -12 9 -8 9 3 14 -2 14 -16 0 -12 5 -21 10 -21
6 0 10 -9 10 -20 0 -11 5 -20 10 -20 6 0 10 -6 10 -14 0 -8 8 -17 17 -19 16
-4 17 -5 1 -6 -14 -1 -13 -5 8 -26 14 -14 22 -30 19 -35 -3 -6 -2 -10 3 -10 6
0 15 -14 21 -30 5 -17 17 -33 26 -36 8 -3 15 -10 15 -16 0 -5 -6 -6 -12 -2 -7
4 -1 -6 15 -23 15 -16 27 -37 27 -47 0 -9 4 -14 10 -11 6 4 10 -5 10 -19 0
-14 5 -26 10 -26 6 0 10 -6 10 -14 0 -8 5 -18 12 -22 7 -5 8 -3 3 6 -5 9 -4
11 4 6 6 -4 8 -12 5 -18 -4 -6 -1 -14 5 -18 7 -4 13 -14 15 -23 1 -10 11 -24
22 -33 10 -8 13 -12 6 -9 -11 6 -12 3 -3 -14 7 -11 16 -21 21 -21 6 0 10 -9
10 -20 0 -11 5 -20 11 -20 6 0 9 -9 6 -19 -3 -14 -1 -18 9 -14 9 3 14 -2 14
-16 0 -12 5 -21 10 -21 6 0 10 -7 10 -15 0 -8 5 -15 11 -15 5 0 7 -5 4 -10 -3
-5 -1 -10 6 -10 7 0 10 -3 6 -6 -3 -4 1 -13 9 -21 8 -9 13 -22 10 -29 -3 -8 0
-13 6 -11 7 1 12 -3 13 -10 0 -7 9 -19 20 -28 11 -9 14 -14 8 -10 -9 4 -11 1
-7 -9 3 -9 14 -16 23 -17 11 0 12 -2 3 -6 -9 -3 -6 -11 10 -25 15 -14 19 -22
11 -25 -10 -4 -10 -7 0 -18 7 -7 15 -11 20 -8 4 2 7 -5 7 -16 0 -10 5 -21 11
-23 5 -2 12 -12 13 -23 2 -11 9 -19 16 -17 6 1 9 -2 6 -7 -4 -5 0 -16 8 -24 8
-8 12 -17 9 -21 -4 -3 3 -15 15 -27 13 -11 20 -24 17 -30 -4 -5 1 -12 9 -15 9
-3 16 -12 16 -20 0 -8 6 -14 13 -14 8 0 7 -4 -3 -10 -13 -8 -13 -10 2 -10 12
0 15 -5 11 -17 -4 -11 -3 -14 5 -9 11 6 17 -12 13 -37 -1 -5 3 -6 9 -2 5 3 10
0 10 -8 0 -8 7 -17 15 -21 8 -3 15 -14 15 -25 0 -11 7 -26 15 -35 9 -8 16 -19
16 -23 1 -4 5 -7 9 -6 5 2 7 -7 5 -18 -2 -11 2 -22 10 -26 8 -3 15 -14 15 -24
0 -10 5 -19 10 -19 6 0 10 -6 10 -13 0 -7 9 -19 20 -27 14 -10 16 -16 7 -22
-8 -5 -6 -8 6 -8 10 0 15 -4 12 -10 -3 -5 1 -10 10 -10 11 0 15 -5 11 -15 -3
-8 -1 -15 5 -15 5 0 14 -11 21 -25 6 -13 16 -22 21 -18 6 4 8 0 4 -10 -3 -10
-2 -17 4 -17 14 0 39 -26 39 -39 0 -6 5 -11 10 -11 6 0 10 -6 10 -14 0 -7 7
-19 15 -26 8 -7 12 -17 8 -23 -4 -6 -1 -7 6 -3 9 6 9 12 -3 25 -9 10 -16 21
-16 26 0 5 11 -5 23 -23 13 -17 27 -29 31 -25 4 4 4 -1 0 -11 -5 -14 -4 -17 4
-12 7 4 12 1 12 -8 0 -9 7 -16 16 -16 8 0 12 -4 9 -10 -3 -5 0 -10 8 -10 8 0
22 -11 33 -24 10 -14 21 -23 26 -20 4 3 8 -2 8 -10 0 -8 9 -18 20 -21 11 -3
20 -11 20 -17 0 -5 7 -8 14 -5 11 4 13 1 9 -10 -4 -11 -2 -14 5 -9 7 4 12 2
12 -4 0 -6 8 -14 17 -17 10 -4 24 -13 31 -20 8 -7 18 -11 23 -8 5 4 9 -1 9
-10 0 -9 4 -13 10 -10 5 3 10 1 10 -4 0 -6 6 -11 14 -11 8 0 17 -7 20 -16 4
-10 14 -14 26 -11 13 3 20 0 20 -9 0 -13 12 -18 33 -15 4 0 7 -6 7 -14 0 -8 6
-12 14 -9 7 3 21 -2 30 -11 9 -10 25 -15 36 -12 13 3 17 1 13 -9 -4 -10 3 -14
21 -14 14 0 26 -4 26 -10 0 -5 9 -10 19 -10 11 0 21 -4 23 -10 2 -5 18 -11 36
-13 19 -2 37 -8 40 -14 11 -15 51 -22 56 -9 2 6 5 3 5 -8 1 -12 6 -16 16 -12
8 3 15 1 15 -4 0 -5 7 -6 17 -3 10 4 14 2 10 -4 -3 -5 0 -10 8 -10 8 0 12 4 9
9 -3 4 2 5 10 2 9 -3 16 -10 16 -14 0 -5 9 -7 20 -5 11 2 20 -2 20 -8 0 -8 3
-8 9 1 6 11 10 10 15 -3 5 -15 9 -15 23 -4 12 10 14 10 9 2 -4 -7 -2 -13 3
-13 6 0 11 6 11 13 0 9 2 9 9 -1 5 -8 28 -13 59 -14 29 0 52 -3 52 -7 0 -8 0
-8 160 -11 66 -1 108 -6 112 -14 6 -8 8 -8 8 2 0 6 11 12 25 12 14 0 25 -6 25
-12 0 -9 4 -8 10 2 8 13 13 13 31 2 11 -8 18 -9 14 -3 -9 15 18 14 34 -1 11
-10 12 -10 7 -1 -9 17 133 16 153 -1 11 -8 13 -8 8 0 -9 16 133 16 152 1 12
-9 13 -9 7 1 -10 16 16 16 33 -1 11 -9 13 -9 7 1 -9 16 16 16 33 -1 11 -9 13
-9 7 1 -5 9 5 12 38 12 26 0 46 -5 49 -12 4 -10 6 -10 6 0 1 6 12 12 26 12 14
0 25 -6 25 -12 0 -9 4 -8 10 2 8 13 13 13 31 2 11 -8 18 -9 14 -3 -9 15 18 14
34 -2 11 -9 12 -9 7 0 -9 17 133 16 153 -1 11 -8 13 -8 8 0 -9 16 133 16 152
1 12 -9 13 -9 7 1 -4 7 -2 12 6 12 8 0 20 -6 27 -12 11 -11 13 -10 7 0 -9 16
16 16 33 -1 11 -9 13 -9 7 1 -5 9 5 12 38 12 26 0 46 -5 49 -12 4 -10 6 -10 6
0 1 6 12 12 26 12 14 0 25 -6 25 -12 0 -9 4 -8 10 2 8 13 13 13 31 2 11 -8 18
-9 14 -3 -9 15 18 14 34 -2 11 -9 12 -9 7 0 -9 17 133 16 153 -1 11 -8 13 -8
8 0 -9 16 133 16 152 1 12 -9 13 -9 7 1 -10 16 16 16 33 0 11 -10 13 -10 7 0
-9 16 16 16 33 0 11 -11 13 -11 7 0 -5 9 5 12 38 12 26 0 46 -5 49 -12 4 -10
6 -10 6 0 1 6 12 12 26 12 14 0 25 -6 25 -12 0 -9 4 -8 10 2 8 13 13 13 31 2
11 -8 18 -9 14 -3 -9 15 18 14 34 -2 11 -9 12 -9 7 0 -9 17 133 16 153 -1 11
-8 13 -8 8 0 -9 16 133 16 152 1 12 -9 13 -9 7 1 -10 16 16 16 33 0 11 -11 13
-11 7 0 -4 7 -2 12 6 12 8 0 20 -6 27 -12 11 -10 13 -10 7 0 -5 9 5 12 38 12
26 0 46 -5 49 -12 4 -10 6 -10 6 0 1 6 12 12 26 12 14 0 25 -6 25 -12 0 -9 4
-8 10 2 8 13 13 13 31 2 11 -8 18 -9 14 -3 -9 15 18 14 34 -1 11 -10 12 -10 7
-1 -9 17 133 16 153 -1 11 -8 13 -8 8 0 -9 16 133 16 152 1 12 -9 13 -9 7 1
-10 16 16 16 33 -1 11 -9 13 -9 7 1 -9 16 16 16 33 -1 11 -9 13 -9 7 1 -5 9 5
12 38 12 30 0 46 -4 46 -12 0 -10 2 -10 9 0 4 7 12 12 17 11 5 -1 53 -1 107 0
76 1 96 4 91 14 -6 9 -4 9 8 -1 9 -7 19 -9 22 -4 3 5 20 10 38 11 56 4 58 4
58 15 0 7 3 7 8 1 4 -5 13 -11 21 -13 11 -2 12 0 3 10 -9 12 -5 14 21 12 18
-1 38 2 44 8 7 6 13 7 13 2 0 -4 6 0 13 11 11 14 16 15 22 5 6 -9 4 -11 -5 -5
-9 6 -11 4 -5 -4 5 -9 10 -10 18 -2 6 6 19 11 30 11 10 0 16 4 12 9 -5 9 2 11
53 12 12 0 20 4 17 10 -4 5 -2 9 4 9 5 0 22 5 38 12 31 13 39 15 66 17 10 0
15 5 12 11 -3 5 4 10 15 10 12 0 36 10 53 22 18 13 28 16 23 7 -4 -7 -1 -6 8
5 8 10 20 15 26 11 6 -4 9 -1 8 7 -2 7 3 12 10 10 7 -1 22 7 34 18 11 10 25
17 30 14 4 -3 11 2 14 10 3 9 13 16 21 16 8 0 11 5 7 12 -5 8 0 9 14 6 15 -4
22 -2 22 8 0 8 6 13 13 12 6 -2 11 3 9 10 -2 11 18 17 42 13 5 -1 3 5 -4 14
-11 13 -10 15 3 10 14 -6 51 22 122 93 12 12 27 22 34 22 6 0 10 3 10 8 -1 4
-1 14 0 22 1 12 3 13 10 1 7 -11 10 -9 16 8 3 12 11 19 16 16 8 -6 13 9 10 29
-1 5 5 6 13 3 9 -4 17 1 21 13 3 10 12 21 20 24 8 3 15 10 15 16 0 15 26 41
34 33 6 -6 10 21 7 40 -1 5 3 6 9 2 5 -3 10 1 10 9 0 9 6 15 12 14 7 -2 13 4
13 12 0 8 6 19 13 23 6 4 12 15 12 23 0 8 5 12 10 9 6 -3 10 1 10 9 0 8 8 19
17 25 10 5 17 12 16 15 -6 13 -2 27 5 22 5 -3 9 1 10 9 1 8 3 22 4 29 1 8 6
14 11 13 5 -1 11 7 13 17 1 10 8 22 15 26 6 4 8 13 5 19 -5 7 -2 10 6 9 7 -2
12 2 11 9 -1 6 4 17 12 23 8 7 15 21 15 32 0 14 5 18 14 15 10 -4 13 -1 9 9
-3 8 4 24 15 35 13 12 19 26 15 36 -4 11 -3 14 5 9 7 -4 14 3 18 18 3 13 16
34 30 47 13 12 21 25 19 29 -6 9 20 62 26 56 2 -3 9 6 16 20 8 18 8 23 0 18
-7 -3 -4 1 6 9 9 8 17 19 17 26 0 6 5 11 10 11 6 0 9 3 9 8 -3 19 2 33 11 27
9 -5 15 15 11 38 0 4 6 7 15 7 9 0 12 5 8 12 -4 6 1 17 11 24 10 8 16 17 12
20 -4 4 0 12 9 18 8 6 16 22 17 34 1 14 6 21 15 17 7 -2 10 0 7 5 -3 6 -2 10
4 10 5 0 11 10 13 23 2 12 9 21 17 19 12 -3 12 0 1 12 -10 13 -10 16 4 16 10
0 15 4 12 9 -3 5 3 20 14 34 11 14 20 32 20 41 0 9 6 19 14 22 8 3 12 12 10
19 -3 7 0 16 7 21 8 5 10 3 4 -6 -5 -9 -4 -11 3 -6 7 4 12 16 12 27 0 11 4 18
8 15 4 -2 9 5 9 17 1 12 8 26 16 32 8 5 13 18 11 28 -2 15 0 16 14 5 13 -11
14 -11 8 0 -5 8 -1 22 11 35 18 21 18 21 -2 7 -11 -8 -7 0 9 18 17 18 26 32
21 32 -5 0 0 7 11 16 10 8 13 12 5 8 -9 -5 -7 2 5 18 10 14 22 24 26 21 4 -2
5 2 2 10 -3 8 2 20 11 27 8 7 15 23 15 36 0 14 5 23 13 22 6 -2 11 3 9 10 -1
6 3 12 9 12 5 0 8 3 6 8 -5 8 18 33 25 27 2 -2 5 5 6 15 4 43 6 49 14 44 7 -5
12 10 9 28 0 5 3 8 8 8 5 0 13 9 16 20 4 11 11 17 17 14 7 -5 9 -1 5 9 -3 9 0
23 8 31 8 8 15 22 15 30 0 9 7 16 15 16 9 0 12 6 9 15 -4 8 1 17 9 21 9 3 14
14 12 25 -2 10 1 18 8 16 6 -1 12 4 13 11 1 6 2 17 3 23 0 5 6 7 13 3 8 -5 9
-2 5 9 -3 10 -2 17 3 17 6 0 10 4 10 10 0 5 8 19 18 30 9 11 18 25 18 30 1 6
2 15 3 21 0 5 6 7 11 4 6 -3 10 3 10 14 0 12 5 21 11 21 6 0 9 6 6 13 -2 6 2
17 10 22 8 6 15 20 16 32 0 12 4 20 9 17 10 -6 30 34 23 46 -4 6 1 7 11 3 12
-4 15 -3 10 6 -5 7 0 18 10 27 11 9 13 12 6 9 -11 -6 -11 -3 -1 13 7 12 17 18
22 15 4 -3 8 1 6 8 -3 27 1 40 11 34 6 -3 10 3 10 14 0 12 5 21 11 21 5 0 8 4
5 9 -3 5 3 20 14 34 11 14 20 29 20 35 0 5 9 17 20 27 12 10 18 25 16 32 -3 7
1 13 9 13 8 0 15 5 15 11 0 5 -6 7 -12 3 -7 -3 0 5 16 18 16 14 26 29 23 35
-4 6 0 16 8 23 8 7 15 19 15 27 0 7 6 16 14 19 8 3 12 12 9 20 -3 7 2 17 11
20 9 3 14 9 11 14 -2 4 4 16 15 28 11 11 22 32 26 47 4 15 13 29 20 32 8 3 11
9 8 14 -3 5 0 9 6 9 6 0 8 5 5 10 -3 6 -2 10 3 10 10 0 52 76 52 94 0 6 9 20
21 29 11 10 18 25 15 33 -3 8 -2 13 3 10 8 -5 36 42 33 57 -1 4 5 7 13 7 9 0
12 6 9 15 -4 8 -1 15 6 15 6 0 8 5 5 10 -3 5 -1 10 4 10 6 0 11 9 11 21 0 11
5 17 10 14 8 -5 15 20 8 28 -2 1 8 17 22 36 13 19 17 31 9 27 -9 -5 -9 -3 2 6
9 7 15 25 15 40 -1 22 1 25 13 15 8 -7 12 -7 8 -1 -3 6 0 22 7 36 11 20 11 29
2 39 -8 9 -8 10 2 5 12 -7 16 7 14 49 0 11 2 14 4 8 11 -25 20 -12 19 23 -1
19 3 41 9 47 6 7 12 30 14 52 2 21 8 45 14 52 7 9 7 18 -3 30 -10 11 -10 14
-1 9 9 -5 12 4 12 36 0 24 5 49 11 55 8 8 8 13 0 17 -6 4 -11 13 -11 19 0 7 4
6 10 -3 9 -13 10 -13 10 0 0 9 -5 21 -11 27 -8 8 -7 13 2 18 8 6 10 4 4 -5 -5
-9 -4 -11 3 -6 8 5 9 13 2 25 -5 10 -7 21 -4 24 3 3 5 50 4 104 -1 54 -1 112
-1 130 1 17 -3 34 -9 38 -7 4 -7 13 1 27 8 15 8 19 0 14 -15 -10 -14 7 2 23
10 11 10 13 0 7 -10 -5 -13 5 -13 39 0 34 -3 44 -13 39 -9 -6 -9 -4 1 8 9 11
10 18 2 23 -5 3 -10 26 -10 51 0 28 -5 47 -14 50 -7 3 -12 16 -10 30 1 13 -2
24 -7 24 -6 0 -7 5 -4 10 3 6 2 10 -3 10 -5 0 -9 8 -9 18 0 35 -3 43 -14 36
-7 -4 -7 1 1 16 10 18 9 21 -1 15 -9 -6 -11 -3 -6 9 5 11 3 15 -5 10 -7 -5 -9
0 -6 14 4 12 3 20 -2 17 -10 -6 -22 24 -14 36 3 5 -2 12 -10 15 -9 3 -16 17
-16 31 0 14 -4 22 -10 18 -6 -4 -10 -3 -9 2 4 24 -2 53 -11 48 -5 -3 -10 3
-10 14 0 12 -4 21 -10 21 -5 0 -10 7 -10 16 0 9 -5 12 -12 8 -9 -5 -9 -3 1 9
11 14 11 18 -3 23 -9 3 -16 13 -16 20 0 8 -7 17 -15 20 -8 4 -13 10 -10 14 3
5 -1 15 -9 23 -8 8 -12 17 -9 21 4 3 1 6 -6 6 -7 0 -9 5 -6 10 3 6 2 10 -4 10
-5 0 -15 16 -22 34 -7 19 -16 33 -21 30 -4 -3 -8 4 -8 15 0 10 -4 21 -10 23
-5 2 -11 12 -12 23 -2 11 -14 31 -26 43 -13 13 -20 27 -17 32 4 6 1 10 -5 10
-5 0 -20 20 -32 45 -12 25 -26 45 -30 45 -4 0 -8 9 -8 21 0 13 -4 18 -12 13
-6 -4 -8 -3 -4 4 3 6 1 16 -6 24 -7 7 -14 20 -16 28 -2 8 -8 17 -13 18 -5 2
-9 10 -9 18 0 8 -5 14 -11 14 -5 0 -8 4 -5 9 3 5 -1 14 -10 21 -8 7 -13 19
-10 27 3 8 1 11 -4 8 -6 -3 -11 -1 -11 4 -1 6 -2 15 -3 20 0 5 -5 13 -10 18
-5 5 -6 2 -1 -6 5 -9 4 -12 -3 -7 -7 4 -12 18 -12 32 0 13 -4 24 -10 24 -5 0
-10 5 -10 11 0 6 -7 17 -16 26 -8 9 -13 22 -10 30 3 8 1 11 -4 8 -6 -3 -10 1
-10 9 0 9 -6 16 -14 16 -9 0 -13 7 -11 19 2 11 -3 22 -11 25 -8 3 -14 15 -14
26 0 11 -7 20 -15 20 -9 0 -12 6 -9 15 4 8 -1 17 -10 21 -9 3 -16 12 -16 20 0
8 -4 14 -10 14 -5 0 -10 12 -10 26 0 14 -4 23 -10 19 -6 -4 -10 5 -10 19 0 16
-5 25 -12 23 -7 -1 -12 6 -10 15 1 9 -3 20 -9 24 -8 5 -9 3 -4 -7 5 -8 4 -11
0 -6 -5 4 -10 18 -12 30 -2 12 -10 27 -18 33 -8 6 -15 16 -15 23 0 6 -5 11
-11 11 -6 0 -9 9 -6 19 3 14 1 18 -9 14 -9 -3 -14 2 -14 16 0 12 -5 21 -11 21
-5 0 -8 4 -4 9 3 5 -2 16 -10 24 -8 9 -15 23 -15 32 0 9 -4 14 -9 11 -10 -7
-24 22 -16 34 3 5 -4 14 -15 20 -11 6 -18 15 -15 19 2 5 -2 14 -10 21 -8 7
-12 16 -9 21 3 5 -1 9 -9 9 -8 0 -14 8 -13 18 0 9 -4 16 -10 15 -6 -1 -11 5
-12 13 -1 8 -3 21 -4 29 -1 8 -5 12 -10 9 -4 -3 -8 4 -8 16 0 12 -4 18 -10 15
-9 -5 -15 16 -11 38 1 5 -3 6 -9 2 -5 -3 -11 -1 -11 4 -1 6 -2 14 -3 19 -2 11
-39 66 -50 73 -5 4 -5 12 -2 18 4 6 0 14 -8 17 -9 3 -16 10 -16 16 0 5 -7 16
-15 25 -8 8 -13 19 -10 24 4 5 1 9 -4 9 -6 0 -11 7 -11 15 0 8 -4 15 -10 15
-5 0 -10 9 -10 20 0 11 -4 20 -8 20 -5 0 -17 18 -28 39 -10 22 -23 36 -29 33
-5 -3 -4 2 4 12 12 15 12 17 0 14 -8 -2 -13 3 -12 10 2 6 -2 12 -7 12 -6 0
-10 9 -10 19 0 11 -5 23 -12 27 -7 4 -8 3 -4 -4 4 -7 5 -12 2 -12 -6 0 -36 60
-36 72 0 5 -7 16 -15 25 -8 8 -13 18 -11 22 3 4 -6 15 -20 25 -16 13 -24 29
-24 50 0 24 -3 27 -10 16 -9 -13 -10 -13 -11 0 -1 8 -1 21 0 29 2 7 -2 10 -8
6 -10 -6 -15 7 -12 28 1 4 -6 10 -14 13 -8 3 -12 10 -9 15 3 5 0 9 -6 9 -6 0
-8 5 -5 10 3 6 1 10 -5 10 -7 0 -9 7 -6 16 3 8 2 13 -3 10 -11 -7 -52 69 -43
80 4 4 -1 4 -10 1 -12 -4 -16 -1 -13 14 2 10 -1 19 -7 19 -6 0 -8 3 -5 6 4 4
-1 14 -11 23 -16 15 -24 33 -25 58 0 6 -7 9 -15 5 -10 -3 -13 -1 -8 6 4 7 2
20 -4 29 -11 17 -11 17 -6 0 3 -11 2 -15 -4 -12 -6 3 -10 16 -10 29 0 12 -9
32 -20 44 -11 12 -20 25 -19 29 0 4 -8 10 -18 14 -17 7 -16 8 2 9 18 1 19 1 3
11 -10 5 -18 18 -18 27 0 9 -9 23 -20 30 -11 7 -20 17 -20 23 0 6 -9 24 -21
40 -11 16 -18 29 -14 29 3 0 0 6 -7 14 -7 8 -16 12 -20 9 -5 -2 -8 3 -8 12 0
16 -8 27 -47 70 -13 13 -23 27 -23 31 0 3 -20 26 -45 50 -25 23 -45 51 -45 61
0 14 -2 15 -9 5 -7 -11 -9 -10 -15 3 -3 9 -11 13 -17 9 -8 -4 -9 -3 -5 4 4 6
-3 19 -15 29 -13 10 -33 28 -46 41 -13 12 -29 22 -35 22 -6 0 -8 3 -5 7 6 6
-34 41 -41 35 -6 -6 -29 24 -24 32 3 5 0 6 -6 2 -6 -3 -20 3 -31 15 -11 12
-24 18 -32 14 -7 -5 -10 -4 -5 3 3 6 -3 13 -14 17 -11 3 -20 11 -20 17 0 5 -7
7 -16 4 -8 -3 -12 -2 -9 4 3 6 -1 10 -10 10 -9 0 -13 5 -10 10 3 6 -3 10 -15
10 -12 0 -19 4 -16 8 2 4 -5 9 -17 9 -12 1 -23 7 -25 13 -2 5 -12 10 -23 10
-10 0 -19 5 -19 11 0 6 -7 8 -16 5 -10 -4 -13 -2 -8 6 5 8 2 9 -10 5 -10 -4
-15 -3 -11 3 6 9 -8 14 -27 11 -5 0 -8 4 -8 10 0 5 -4 8 -9 4 -5 -3 -16 2 -24
10 -9 8 -23 12 -31 9 -11 -4 -16 0 -16 12 0 16 -2 17 -10 4 -6 -10 -10 -11
-10 -2 0 6 -12 12 -26 12 -15 0 -23 4 -18 11 4 7 -3 10 -17 9 -39 -3 -51 -1
-44 10 4 6 -8 10 -29 10 -19 0 -37 6 -39 13 -4 10 -6 10 -6 0 -1 -7 -6 -13
-12 -13 -5 0 -7 5 -4 10 4 6 -8 10 -29 10 -22 0 -36 5 -36 13 0 9 -3 8 -9 -2
-6 -9 -10 -10 -12 -2 -3 7 -23 13 -47 14 -23 1 -42 6 -42 12 0 5 -5 3 -10 -5
-8 -12 -10 -12 -10 -1 0 10 -3 11 -14 2 -11 -9 -16 -9 -22 0 -5 8 -3 9 6 4 8
-5 11 -4 7 1 -4 7 -452 18 -587 15 -8 -1 -62 -1 -120 -1 -58 0 -111 1 -117 0
-7 0 -24 0 -38 0 -14 0 -33 0 -42 0 -17 0 -211 0 -243 1 -56 0 -548 0 -560 0
-8 -1 -60 -1 -115 -1 -55 0 -156 -1 -225 -1 -69 0 -197 0 -285 0 -88 1 -167 1
-175 1 -8 0 -62 0 -120 0 -58 0 -111 1 -117 0 -7 0 -24 0 -38 0 -14 0 -33 0
-42 0 -10 0 -63 0 -118 0 -55 0 -120 0 -145 0 -368 -5 -521 -4 -524 5 -3 6 -5
4 -5 -3z m15 -261 c-11 -17 22 -19 45 -4 12 9 19 12 16 6 -4 -6 0 -13 8 -16 9
-4 12 -1 9 7 -3 7 2 13 10 13 8 0 13 -3 11 -7 -2 -4 2 -7 10 -7 8 0 12 4 9 9
-3 4 0 8 5 8 6 0 11 -4 11 -10 0 -5 5 -10 11 -10 5 0 8 4 5 8 -3 5 1 9 9 9 8
0 12 -4 10 -8 -3 -4 2 -9 10 -12 8 -4 12 -1 9 6 -3 9 10 13 44 12 31 0 48 -4
45 -11 -2 -6 3 -11 11 -11 8 0 12 6 9 13 -3 8 2 11 14 9 10 -2 18 -4 18 -5 0
-1 8 -3 18 -5 9 -2 15 0 12 5 -3 4 9 7 25 6 22 0 29 -5 25 -16 -3 -9 1 -7 10
4 8 11 15 14 15 7 0 -7 5 -9 13 -4 18 11 38 13 31 2 -3 -5 0 -9 5 -9 6 0 11 6
12 13 0 9 2 9 6 -1 4 -9 9 -10 18 -2 9 8 14 6 20 -7 6 -17 7 -17 21 1 10 14
14 16 14 5 0 -12 2 -12 10 1 6 10 10 11 10 3 0 -7 5 -13 11 -13 5 0 8 4 5 9
-7 11 13 9 32 -2 7 -5 12 -3 12 5 1 8 7 5 17 -7 13 -16 15 -17 10 -2 -4 9 -2
17 2 17 5 0 12 -8 16 -17 6 -17 7 -17 21 1 10 14 14 16 14 5 0 -12 2 -12 10 1
6 10 10 11 10 3 0 -7 5 -13 11 -13 5 0 8 4 5 9 -7 11 13 9 32 -2 7 -5 12 -3
12 5 1 8 7 5 17 -7 13 -16 15 -17 10 -2 -4 9 -2 17 2 17 5 0 12 -8 16 -17 6
-17 7 -17 21 1 10 14 14 16 14 5 0 -12 2 -12 10 1 6 10 10 11 10 3 0 -7 5 -13
11 -13 5 0 8 4 5 9 -7 11 13 9 32 -2 7 -5 12 -3 12 5 1 8 7 5 17 -7 13 -16 15
-17 10 -2 -4 9 -2 17 2 17 5 0 12 -8 16 -17 6 -17 7 -17 21 1 10 14 14 16 14
5 0 -12 2 -12 10 1 6 10 10 11 10 3 0 -7 5 -13 11 -13 5 0 8 4 5 9 -7 11 13 9
32 -2 6 -5 12 -4 12 1 0 5 6 9 14 9 8 0 12 -6 10 -12 -3 -6 2 -12 10 -12 8 0
12 6 9 13 -3 8 2 11 14 9 10 -2 18 -4 18 -5 0 -1 8 -3 18 -5 9 -2 15 1 11 6
-3 5 0 9 5 9 6 0 11 -4 11 -10 0 -5 5 -10 11 -10 5 0 8 4 5 8 -3 5 1 9 9 9 8
0 12 -4 10 -8 -3 -4 2 -9 10 -12 8 -4 12 -1 9 6 -3 9 10 13 44 12 31 0 48 -4
45 -11 -2 -6 3 -11 11 -11 8 0 12 6 9 13 -3 8 2 11 14 9 10 -2 18 -4 18 -5 0
-1 8 -3 18 -5 9 -2 15 0 12 5 -3 4 9 7 25 6 22 0 29 -5 25 -16 -3 -9 1 -7 10
4 8 11 15 14 15 7 0 -7 5 -9 13 -4 18 11 38 13 31 2 -3 -5 0 -9 5 -9 6 0 11 6
11 13 0 8 4 7 10 -3 5 -8 10 -11 10 -6 0 5 7 3 15 -4 13 -11 14 -10 9 3 -4 11
0 14 13 12 10 -2 18 -4 18 -5 0 -1 8 -3 18 -5 9 -2 15 1 11 6 -3 5 0 9 5 9 6
0 11 -4 11 -10 0 -5 5 -10 11 -10 5 0 8 4 5 8 -3 5 1 9 9 9 8 0 12 -4 10 -8
-3 -4 2 -9 10 -12 8 -4 12 -1 9 6 -3 9 10 13 44 12 31 0 48 -4 45 -11 -2 -6 3
-11 11 -11 8 0 12 6 9 13 -3 8 2 11 14 9 10 -2 18 -4 18 -5 0 -1 8 -3 18 -5 9
-2 15 0 12 5 -3 4 9 7 25 6 22 0 29 -5 25 -16 -3 -9 1 -7 10 4 8 11 15 14 15
7 0 -7 5 -9 13 -4 18 11 38 13 31 2 -3 -5 0 -9 5 -9 6 0 11 6 11 13 0 8 4 7
10 -3 5 -8 10 -11 10 -6 0 5 7 3 15 -4 13 -11 14 -10 9 3 -4 11 0 14 13 12 10
-2 18 -4 18 -5 0 -1 8 -3 18 -5 9 -2 15 1 11 6 -3 5 0 9 5 9 6 0 11 -4 11 -10
0 -5 5 -10 11 -10 5 0 8 4 5 8 -3 5 1 9 9 9 8 0 12 -4 10 -8 -3 -4 2 -9 10
-12 8 -4 12 -1 9 6 -3 9 10 13 44 12 31 0 48 -4 45 -11 -2 -6 3 -11 11 -11 8
0 12 6 9 13 -3 8 2 11 14 9 10 -2 18 -4 18 -5 0 -1 8 -3 18 -5 9 -2 15 1 11 6
-3 5 -1 9 4 9 6 0 13 -8 17 -17 6 -17 7 -17 21 1 10 14 14 16 14 5 0 -12 2
-12 10 1 6 10 10 11 10 3 0 -7 5 -13 11 -13 5 0 8 4 5 9 -7 11 13 9 32 -2 7
-5 12 -3 12 5 1 8 7 5 17 -7 13 -16 15 -17 10 -2 -4 9 -2 17 2 17 5 0 12 -8
16 -17 6 -17 7 -17 21 1 10 14 14 16 14 5 0 -12 2 -12 10 1 6 10 10 11 10 3 0
-7 5 -13 11 -13 5 0 8 4 5 9 -7 11 13 9 32 -2 7 -5 12 -3 12 5 1 8 7 5 17 -7
13 -16 15 -17 10 -2 -4 9 -2 17 2 17 5 0 12 -8 16 -17 6 -17 7 -17 21 1 10 14
14 16 14 5 0 -12 2 -12 10 1 6 10 10 11 10 3 0 -7 5 -13 11 -13 5 0 8 4 5 9
-7 11 13 9 32 -2 7 -5 12 -3 12 5 1 8 7 5 17 -7 13 -16 15 -17 10 -2 -4 9 -2
17 2 17 5 0 12 -8 16 -17 6 -17 7 -17 21 1 10 14 14 16 14 5 0 -12 2 -12 10 1
6 10 10 11 10 3 0 -7 5 -13 11 -13 5 0 8 4 5 9 -7 11 13 9 32 -2 7 -5 12 -3
12 5 1 8 7 5 17 -7 11 -14 14 -15 10 -4 -4 13 1 16 24 15 21 0 28 -5 24 -16
-3 -9 1 -7 10 4 8 11 15 14 15 7 0 -7 5 -9 13 -4 18 11 38 13 31 2 -3 -5 0 -9
5 -9 6 0 11 6 11 13 0 8 4 7 10 -3 5 -8 10 -11 10 -6 0 5 7 3 15 -4 13 -11 14
-10 9 3 -4 11 0 14 13 12 10 -2 18 -4 18 -5 0 -1 8 -3 18 -5 9 -2 15 1 11 6
-3 5 0 9 5 9 6 0 11 -4 11 -10 0 -5 5 -10 11 -10 5 0 8 4 5 8 -3 5 1 9 9 9 8
0 12 -4 10 -8 -3 -4 2 -9 10 -12 10 -4 12 -1 8 11 -5 14 -3 15 7 5 11 -10 17
-10 29 0 12 9 13 9 7 0 -4 -7 -2 -13 3 -13 6 0 11 6 11 13 0 9 2 9 8 -1 5 -7
37 -13 84 -14 42 -2 75 -5 73 -9 -2 -3 14 -5 36 -5 23 1 43 -2 46 -6 2 -5 14
-8 27 -8 12 0 28 -6 35 -12 11 -11 12 -10 6 0 -7 14 -4 13 54 -17 14 -8 20 -8
17 -2 -4 7 -1 8 8 5 9 -3 14 -9 12 -13 -3 -4 3 -7 12 -8 44 -3 60 -8 56 -15
-3 -4 7 -8 21 -8 15 0 33 -7 42 -15 8 -8 19 -13 24 -10 5 4 9 2 9 -2 0 -5 10
-10 22 -10 13 -1 24 -7 26 -13 2 -5 8 -10 14 -10 6 0 17 -8 25 -17 8 -10 11
-12 7 -4 -4 7 10 2 31 -12 21 -14 42 -24 47 -21 5 3 7 0 6 -8 -2 -7 3 -12 10
-11 6 2 12 -4 12 -12 0 -8 3 -14 8 -14 22 4 42 -2 37 -11 -3 -5 1 -10 9 -10 9
0 23 -11 32 -25 9 -14 25 -25 36 -25 10 0 16 -4 13 -10 -3 -5 -1 -10 5 -10 14
0 180 -165 180 -179 0 -6 6 -10 13 -8 6 1 11 -6 11 -15 -1 -10 2 -16 6 -13 4
3 11 -2 14 -11 3 -8 10 -12 16 -9 5 3 7 0 4 -9 -3 -8 3 -19 15 -25 12 -7 18
-19 16 -30 -3 -15 1 -18 12 -14 10 4 14 2 11 -8 -2 -7 7 -24 20 -36 14 -13 20
-23 13 -23 -7 0 0 -12 14 -26 14 -14 23 -29 20 -34 -3 -4 2 -11 11 -14 11 -4
14 -13 11 -27 -4 -15 -2 -19 9 -15 9 3 14 -1 14 -14 0 -11 5 -20 11 -20 5 0 8
-4 4 -9 -3 -5 3 -17 12 -27 10 -10 18 -25 18 -33 1 -9 6 -15 13 -14 7 2 12 -8
12 -23 0 -14 4 -23 9 -19 5 3 11 -5 13 -17 2 -13 9 -22 15 -21 6 1 10 -8 8
-22 -1 -13 1 -22 6 -20 4 3 10 -4 14 -15 3 -11 10 -20 15 -20 5 0 7 -9 5 -20
-3 -15 1 -20 13 -18 13 2 16 -3 14 -21 -3 -16 0 -21 9 -16 8 5 10 4 5 -4 -5
-7 1 -20 15 -32 12 -10 19 -19 15 -19 -4 0 2 -12 13 -26 11 -15 18 -30 15 -35
-3 -5 0 -9 6 -9 6 0 9 -4 6 -8 -3 -5 4 -14 14 -22 10 -8 17 -17 15 -21 -3 -3
4 -17 15 -29 11 -12 17 -26 15 -30 -3 -4 2 -13 10 -20 8 -7 12 -16 9 -21 -3
-5 -1 -9 4 -9 5 0 17 -12 27 -26 11 -18 12 -24 4 -18 -14 8 1 -15 29 -45 7 -7
11 -20 8 -27 -3 -8 0 -13 6 -11 7 1 13 -5 13 -13 0 -8 7 -14 14 -12 9 2 12 -4
8 -17 -3 -12 1 -22 11 -26 8 -3 12 -8 9 -12 -4 -3 1 -12 11 -20 11 -10 12 -12
2 -8 -8 4 -4 -3 10 -15 14 -12 25 -25 24 -29 -2 -18 10 -40 19 -34 6 4 8 0 4
-10 -6 -15 15 -42 25 -32 3 3 4 -6 3 -20 -2 -17 2 -25 13 -25 8 0 12 -3 9 -7
-4 -3 1 -12 11 -20 10 -9 11 -12 2 -7 -11 6 -11 3 2 -12 10 -11 27 -41 38 -67
12 -26 25 -47 29 -47 5 0 12 -7 15 -16 4 -10 2 -13 -7 -9 -6 4 -4 0 6 -8 9 -8
17 -19 17 -26 0 -6 3 -11 8 -11 10 0 32 -50 32 -72 0 -10 7 -18 15 -18 8 0 15
-9 15 -20 0 -11 7 -23 15 -26 8 -4 12 -10 9 -15 -3 -5 0 -9 6 -9 6 0 9 -4 6
-8 -3 -5 3 -18 14 -29 10 -12 16 -24 12 -29 -4 -4 2 -4 12 0 16 5 17 4 6 -9
-8 -10 -9 -15 -1 -15 6 0 11 -6 11 -14 0 -7 7 -19 15 -26 8 -7 12 -16 9 -21
-3 -5 0 -9 5 -9 6 0 11 -5 11 -11 0 -6 7 -17 15 -26 8 -8 13 -19 10 -24 -4 -5
2 -9 12 -10 16 0 16 -1 -1 -8 -19 -7 -19 -8 2 -13 12 -4 22 -13 22 -22 0 -9 4
-16 9 -16 6 0 8 -9 6 -19 -3 -14 1 -18 11 -14 8 3 14 2 13 -3 -3 -20 2 -35 10
-29 6 3 8 -4 6 -15 -2 -13 1 -20 11 -20 8 0 14 -9 14 -20 0 -11 5 -20 11 -20
5 0 8 -4 5 -9 -3 -5 0 -14 8 -20 8 -7 17 -23 20 -37 4 -15 11 -22 18 -18 6 4
8 3 4 -4 -3 -6 -1 -14 4 -17 12 -7 34 -55 32 -67 -1 -5 3 -8 8 -8 6 0 10 -7
10 -16 0 -8 5 -12 10 -9 6 4 10 -5 10 -20 0 -15 4 -24 10 -20 9 6 14 -8 11
-27 0 -5 4 -8 10 -8 5 0 8 -4 5 -9 -3 -5 1 -14 9 -21 8 -7 13 -16 10 -20 -3
-4 2 -10 10 -14 8 -3 15 -11 15 -17 0 -7 7 -20 15 -29 8 -9 16 -28 17 -43 1
-14 6 -23 10 -21 5 3 5 10 2 16 -4 7 -2 8 5 4 6 -4 9 -11 6 -16 -3 -5 1 -15 9
-23 8 -8 13 -17 10 -19 -2 -3 2 -11 11 -18 8 -7 15 -21 15 -32 0 -10 5 -16 10
-13 6 4 10 3 9 -2 -4 -23 2 -43 14 -40 7 1 11 -6 9 -16 -2 -9 4 -20 13 -23 9
-4 14 -12 11 -19 -3 -8 2 -16 10 -19 8 -3 14 -14 14 -24 0 -11 10 -27 23 -36
12 -9 15 -14 7 -11 -8 4 -6 -1 5 -10 11 -9 19 -18 18 -20 -7 -13 -2 -25 9 -19
6 4 8 3 4 -4 -3 -6 -2 -13 4 -17 6 -4 8 -11 5 -16 -4 -5 -1 -9 4 -9 6 0 11 -5
11 -11 0 -6 7 -17 15 -25 8 -8 11 -22 8 -31 -4 -11 -2 -14 5 -9 6 3 16 -3 22
-15 10 -17 9 -20 -2 -14 -7 3 -5 0 4 -8 10 -8 15 -17 11 -20 -3 -4 -2 -7 4 -7
6 0 9 -10 6 -22 -3 -17 -2 -19 5 -9 8 10 11 6 17 -18 4 -17 10 -29 13 -27 4 2
8 -10 9 -27 2 -18 7 -33 13 -35 5 -2 10 -19 10 -38 0 -20 4 -33 9 -29 6 3 11
-12 13 -32 2 -25 8 -37 16 -35 8 1 11 -2 7 -8 -3 -6 -10 -8 -14 -6 -4 3 -7 -5
-8 -17 0 -12 1 -16 4 -9 9 24 21 11 17 -18 -3 -16 -1 -30 5 -30 11 0 9 -19 -3
-39 -6 -9 -5 -12 1 -8 14 9 19 -8 18 -55 0 -21 2 -38 5 -38 8 0 5 -63 -3 -77
-4 -6 -3 -14 2 -17 5 -4 12 0 14 6 4 9 6 10 6 1 1 -6 -4 -15 -9 -18 -8 -5 -7
-11 1 -21 9 -11 8 -15 -4 -20 -9 -3 -13 -12 -10 -21 5 -12 7 -12 14 -1 6 9 9
9 9 1 0 -6 -4 -14 -8 -17 -5 -3 -8 -18 -7 -33 1 -15 -3 -31 -9 -35 -7 -5 -7
-8 2 -8 9 0 10 -6 4 -17 -4 -10 -7 -28 -6 -41 0 -12 -3 -25 -8 -28 -4 -3 -5
-11 -1 -17 12 -20 11 -48 -2 -37 -8 7 -11 0 -9 -25 2 -22 -1 -35 -9 -35 -7 0
-6 -4 3 -10 11 -7 11 -10 2 -10 -7 0 -10 -4 -7 -10 3 -5 0 -10 -7 -11 -10 0
-10 -2 1 -6 10 -4 11 -7 1 -13 -7 -5 -13 -22 -12 -39 0 -17 -4 -29 -9 -26 -5
4 -9 -7 -9 -23 0 -17 -6 -32 -15 -36 -8 -3 -12 -12 -9 -21 4 -8 2 -21 -4 -28
-5 -6 -12 -25 -16 -41 -5 -22 -10 -26 -16 -16 -6 9 -8 6 -9 -11 -1 -44 -4 -58
-13 -53 -7 5 -10 -3 -7 -22 0 -3 -8 -12 -18 -21 -10 -8 -12 -12 -6 -8 7 3 3
-9 -10 -28 -12 -19 -24 -33 -27 -31 -3 1 -7 -7 -7 -18 -1 -12 -7 -24 -13 -28
-6 -4 -12 -14 -14 -23 -1 -10 -11 -24 -22 -33 -10 -8 -13 -13 -7 -9 9 4 11 1
7 -9 -3 -9 -10 -13 -15 -10 -5 3 -9 -6 -9 -19 0 -15 -10 -31 -24 -41 -16 -10
-24 -23 -21 -35 2 -11 -3 -22 -11 -25 -8 -3 -14 -16 -14 -28 0 -19 -2 -20 -10
-8 -8 12 -10 9 -10 -13 0 -16 -4 -26 -10 -22 -5 3 -10 -3 -10 -13 0 -11 -7
-25 -15 -32 -9 -7 -14 -19 -11 -26 3 -8 0 -13 -7 -11 -7 1 -11 -4 -9 -10 1 -7
-3 -13 -9 -13 -5 0 -7 -5 -4 -10 3 -6 0 -13 -9 -16 -8 -3 -13 -14 -11 -26 3
-16 1 -18 -10 -8 -11 9 -13 6 -11 -14 2 -17 -2 -26 -11 -26 -8 0 -11 -5 -8
-10 3 -6 -1 -13 -9 -16 -9 -3 -14 -10 -11 -14 3 -5 1 -11 -5 -15 -6 -4 -8 -11
-5 -16 4 -5 -1 -9 -10 -9 -9 0 -13 -4 -10 -10 8 -13 -19 -52 -29 -43 -4 4 -4
0 0 -10 3 -10 1 -17 -5 -17 -6 0 -11 -9 -11 -20 0 -11 -7 -20 -15 -20 -9 0
-12 -6 -8 -17 4 -11 3 -14 -5 -9 -8 5 -10 2 -6 -8 3 -9 1 -16 -5 -16 -6 0 -11
-7 -11 -15 0 -7 -8 -19 -17 -24 -14 -8 -15 -11 -3 -11 12 0 11 -3 -2 -11 -10
-5 -18 -17 -18 -24 0 -8 -3 -15 -8 -15 -4 0 -13 -15 -21 -32 -8 -18 -23 -43
-33 -55 -11 -12 -18 -26 -15 -30 3 -5 -3 -15 -13 -23 -10 -8 -17 -17 -14 -21
2 -4 -3 -15 -12 -23 -8 -9 -12 -16 -7 -16 4 0 4 -4 -2 -8 -18 -13 -45 -69 -37
-77 4 -5 1 -5 -5 -1 -9 5 -13 0 -13 -13 0 -11 -5 -23 -12 -27 -7 -5 -8 -2 -3
7 5 8 4 11 -1 6 -9 -9 -10 -13 -13 -42 0 -8 -7 -12 -16 -9 -11 5 -13 2 -9 -10
3 -8 -1 -23 -10 -31 -9 -9 -16 -23 -16 -31 0 -8 -5 -14 -11 -14 -6 0 -9 -7 -6
-15 4 -8 1 -17 -5 -21 -7 -5 -8 -2 -3 6 5 9 4 11 -3 6 -7 -4 -12 -13 -12 -21
0 -21 -42 -95 -52 -89 -4 3 -5 -1 -2 -9 3 -8 -2 -20 -10 -27 -9 -7 -13 -16
-10 -21 3 -5 0 -8 -7 -7 -7 2 -13 -1 -14 -7 0 -5 -6 -20 -13 -31 -6 -12 -8
-24 -5 -28 3 -3 -1 -6 -10 -6 -10 0 -16 -3 -15 -7 4 -15 -13 -53 -23 -53 -6 0
-7 -4 -4 -10 3 -5 1 -10 -4 -10 -6 0 -11 -9 -11 -21 0 -11 -4 -17 -10 -14 -9
6 -14 -8 -11 -27 0 -5 -4 -8 -10 -8 -5 0 -7 -4 -4 -10 3 -5 1 -10 -5 -10 -6 0
-8 -4 -5 -10 3 -5 -1 -10 -10 -10 -9 0 -14 -4 -10 -9 3 -5 -2 -16 -10 -24 -8
-9 -15 -23 -15 -31 0 -9 -4 -16 -10 -16 -5 0 -10 -12 -10 -27 0 -22 -2 -25
-10 -13 -8 12 -10 11 -10 -7 0 -15 -6 -23 -17 -23 -15 0 -16 -2 -3 -10 10 -6
11 -10 3 -10 -7 0 -13 -7 -13 -15 0 -8 -4 -15 -10 -15 -5 0 -10 -9 -10 -20 0
-11 -7 -23 -15 -26 -8 -4 -13 -10 -10 -14 3 -4 -2 -10 -10 -14 -8 -3 -15 -14
-15 -24 0 -11 -7 -25 -15 -32 -9 -7 -13 -15 -11 -18 3 -2 -2 -11 -10 -19 -8
-8 -12 -19 -9 -24 4 -5 -1 -9 -9 -9 -10 0 -13 -6 -9 -17 5 -12 3 -14 -7 -8 -8
5 -11 3 -8 -6 3 -8 -4 -22 -15 -32 -11 -9 -17 -20 -14 -23 3 -4 -1 -13 -9 -21
-8 -8 -11 -19 -8 -25 4 -6 3 -8 -3 -5 -6 4 -19 -12 -29 -35 -10 -22 -24 -47
-32 -54 -7 -8 -14 -22 -15 -33 0 -11 -7 -17 -14 -14 -8 3 -11 -2 -8 -15 2 -11
-3 -23 -11 -26 -8 -3 -14 -12 -14 -21 0 -8 -4 -15 -10 -15 -5 0 -10 -12 -10
-27 0 -20 -3 -24 -9 -15 -6 10 -10 6 -16 -15 -5 -15 -7 -32 -6 -36 1 -5 -3 -6
-9 -2 -5 3 -10 -1 -10 -10 0 -9 -5 -13 -11 -10 -6 4 -10 1 -8 -6 3 -29 -1 -50
-11 -44 -9 6 -12 -1 -9 -22 0 -3 -6 -10 -15 -15 -9 -5 -14 -13 -11 -18 3 -4
-2 -11 -11 -14 -9 -4 -14 -13 -10 -21 3 -9 -1 -18 -8 -21 -8 -3 -16 -15 -19
-26 -3 -11 -10 -17 -16 -13 -7 3 -8 0 -5 -9 3 -9 -3 -20 -14 -27 -12 -7 -18
-19 -14 -27 3 -10 1 -13 -6 -8 -7 4 -12 1 -12 -9 0 -10 -5 -13 -12 -9 -8 5 -8
2 1 -10 12 -15 12 -17 0 -14 -8 2 -13 -2 -12 -9 2 -7 -4 -10 -13 -6 -10 4 -14
1 -13 -8 4 -16 -42 -69 -60 -69 -6 0 -10 -3 -10 -7 1 -5 1 -15 0 -23 -1 -13
-2 -13 -11 0 -5 8 -10 12 -11 8 -7 -39 -20 -57 -36 -51 -10 4 -14 2 -10 -4 7
-11 -28 -45 -37 -36 -3 4 -6 -1 -6 -10 0 -9 -5 -17 -10 -17 -11 0 -26 -11 -66
-47 -13 -12 -24 -19 -24 -16 0 4 -10 -4 -21 -16 -12 -13 -35 -27 -50 -33 -16
-5 -26 -14 -23 -19 3 -5 2 -9 -3 -8 -18 3 -34 -1 -29 -9 2 -4 -5 -9 -16 -9
-12 -1 -24 -7 -28 -13 -4 -6 -16 -12 -28 -13 -11 0 -18 -5 -16 -9 5 -7 -3 -10
-22 -7 -4 0 -10 -4 -14 -11 -4 -6 -14 -12 -22 -14 -9 -1 -24 -8 -34 -16 -16
-13 -17 -13 -9 0 8 13 7 13 -9 0 -10 -8 -30 -15 -44 -16 -14 -1 -28 -6 -30
-13 -2 -6 -15 -11 -28 -11 -13 0 -24 -4 -24 -9 0 -5 -18 -8 -39 -7 -27 1 -37
-2 -30 -10 5 -7 -1 -11 -21 -12 -72 -4 -79 -5 -74 -13 7 -13 -19 -7 -28 6 -5
6 -8 5 -8 -2 0 -9 -16 -13 -46 -13 -32 0 -43 -3 -38 -12 5 -7 3 -8 -7 -2 -23
14 -41 14 -35 -1 3 -9 0 -12 -9 -8 -8 3 -12 10 -8 17 3 6 -4 2 -16 -8 -16 -15
-20 -16 -16 -4 7 17 -15 18 -48 4 -10 -5 -24 -3 -34 5 -12 10 -15 10 -9 2 5
-9 -1 -13 -19 -13 -15 0 -24 4 -20 10 3 6 -1 7 -9 4 -9 -3 -14 -10 -11 -14 3
-5 -7 -5 -22 -1 -16 4 -34 6 -41 4 -7 -3 -20 1 -29 9 -12 9 -15 9 -9 1 5 -9
-1 -13 -19 -13 -15 0 -24 4 -20 10 3 6 -1 7 -9 4 -9 -3 -14 -10 -11 -14 3 -5
-7 -5 -22 -1 -16 4 -34 6 -41 4 -7 -3 -20 1 -29 9 -12 9 -15 9 -9 1 5 -9 0
-13 -13 -13 -12 0 -21 5 -21 12 0 6 -7 3 -15 -8 -13 -18 -14 -18 -15 -1 0 17
-1 17 -16 3 -44 -45 -24 1 37 84 112 152 167 263 194 388 57 275 -112 486
-598 741 -100 53 -333 164 -457 217 -100 43 -352 163 -387 185 -21 13 -40 24
-43 24 -3 1 -28 13 -56 27 -47 25 -102 76 -105 99 -1 5 -2 15 -3 22 -3 19 25
47 69 66 41 19 186 68 221 76 10 2 62 13 114 25 52 12 106 24 120 26 14 3 70
14 125 25 55 11 114 22 130 24 17 3 107 19 200 36 94 18 179 33 190 34 42 6
211 46 328 77 156 41 194 73 150 127 -21 25 -36 29 -162 37 -188 12 -249 13
-486 13 -238 0 -317 -2 -470 -13 -102 -8 -247 -22 -305 -31 -14 -2 -49 -7 -79
-10 -46 -5 -160 -23 -307 -49 -17 -3 -84 -20 -150 -36 -65 -17 -123 -32 -129
-33 -132 -31 -351 -137 -427 -209 -197 -184 -101 -394 337 -744 437 -348 390
-309 501 -420 65 -65 101 -111 123 -156 31 -62 31 -65 17 -105 -39 -109 -100
-175 -242 -259 -50 -30 -94 -54 -97 -54 -3 0 -47 -20 -99 -44 -105 -50 -206
-91 -345 -142 -135 -49 -198 -61 -221 -41 -13 9 -14 9 -8 0 5 -9 -1 -13 -19
-13 -15 0 -24 4 -20 10 3 6 -1 7 -9 4 -9 -3 -14 -10 -11 -14 3 -5 -7 -5 -22
-1 -16 4 -34 6 -41 4 -7 -3 -20 1 -29 9 -12 9 -15 9 -9 1 5 -9 -1 -13 -19 -13
-15 0 -24 4 -20 10 3 6 -1 7 -9 4 -9 -3 -14 -10 -11 -14 3 -5 -7 -5 -22 -1
-16 4 -34 6 -41 4 -7 -3 -20 1 -29 9 -12 9 -15 9 -9 0 5 -8 -1 -12 -19 -12
-15 0 -24 4 -20 10 3 6 -1 7 -9 4 -9 -3 -14 -10 -11 -14 7 -11 -36 0 -54 14
-11 8 -13 8 -7 -1 5 -9 -1 -13 -19 -13 -15 0 -24 4 -20 10 3 6 -1 7 -9 4 -9
-3 -14 -9 -12 -13 3 -4 -11 -5 -30 -3 -19 2 -37 8 -40 13 -3 5 -14 5 -25 -1
-11 -7 -19 -7 -19 -1 0 11 -19 9 -39 -3 -10 -6 -12 -5 -7 3 5 8 3 12 -5 10
-36 -4 -120 2 -115 9 3 5 -1 9 -9 9 -8 0 -12 -4 -9 -9 3 -4 0 -8 -5 -8 -6 0
-11 5 -11 10 0 6 -18 10 -41 10 -24 0 -38 4 -34 10 3 6 -1 10 -10 10 -9 0 -13
-5 -9 -11 3 -6 -5 -3 -20 6 -14 10 -26 13 -26 9 0 -5 -5 -2 -10 6 -7 11 -10
12 -10 2 0 -10 -4 -9 -16 2 -8 9 -20 14 -25 11 -5 -4 -9 0 -9 7 0 9 -3 9 -10
-2 -6 -9 -10 -10 -10 -3 0 11 -37 29 -52 25 -5 -1 -8 3 -8 9 0 5 -4 8 -9 4 -5
-3 -12 -1 -16 4 -3 6 -12 8 -20 4 -9 -3 -15 1 -15 11 0 9 -3 15 -7 15 -22 -4
-33 2 -27 13 5 9 2 9 -9 -1 -11 -9 -17 -10 -17 -2 0 6 -7 11 -16 11 -8 0 -12
5 -9 10 3 6 -4 10 -17 10 -26 1 -58 22 -58 38 0 6 -6 9 -13 6 -8 -3 -25 7 -40
21 -14 15 -31 24 -37 20 -6 -3 -10 3 -10 15 0 12 -4 19 -9 15 -5 -3 -16 2 -24
10 -9 8 -21 15 -27 15 -6 0 -9 4 -6 9 4 5 -7 15 -24 23 -16 7 -30 19 -30 26 0
7 -5 10 -10 7 -6 -3 -10 1 -10 10 0 9 -4 13 -10 10 -5 -3 -10 1 -10 10 0 9 -5
13 -10 10 -6 -3 -10 1 -10 10 0 9 -5 13 -10 10 -6 -3 -10 1 -10 9 0 8 -5 18
-12 22 -7 5 -8 3 -3 -6 6 -9 4 -11 -4 -6 -7 5 -10 14 -7 22 5 13 -6 18 -26 15
-5 0 -8 6 -8 15 0 9 -5 12 -12 8 -9 -5 -8 -2 1 9 12 15 12 17 -4 11 -13 -5
-16 -4 -11 4 4 7 2 12 -3 12 -6 0 -11 6 -11 14 0 7 -9 16 -20 19 -12 3 -20 14
-20 25 0 11 -7 23 -16 26 -9 4 -14 13 -10 21 3 8 0 14 -7 12 -7 -1 -12 5 -12
13 0 8 -7 23 -15 32 -25 27 -35 43 -38 58 -2 8 -8 16 -13 18 -5 2 -9 13 -9 23
0 11 -5 17 -10 14 -6 -4 -10 5 -10 20 0 15 -4 24 -10 20 -5 -3 -10 -1 -10 4 0
6 0 13 0 16 0 3 -9 14 -20 25 -12 12 -18 25 -15 30 4 6 1 10 -4 10 -6 0 -10 6
-9 13 2 7 -5 11 -17 9 -14 -2 -16 0 -7 6 10 7 8 14 -8 34 -11 15 -20 34 -20
43 0 10 -5 13 -12 9 -8 -5 -9 -2 -5 9 4 10 1 17 -5 17 -6 0 -8 3 -5 6 4 4 -2
15 -14 25 -14 12 -16 18 -7 22 8 3 6 6 -5 6 -10 1 -16 5 -13 10 4 5 1 11 -4
13 -10 3 -16 21 -19 51 -1 4 -6 6 -13 5 -7 -2 -12 5 -13 15 0 10 -7 22 -15 27
-8 5 -11 10 -6 10 6 0 1 7 -10 16 -10 8 -14 13 -7 10 8 -5 8 0 0 18 -7 14 -14
23 -16 20 -5 -4 -31 44 -31 57 0 5 -10 20 -22 35 -13 14 -31 44 -40 67 -9 23
-17 38 -17 34 -1 -5 -6 -5 -11 -2 -8 5 -7 12 2 23 10 12 10 14 1 8 -8 -4 -13
-2 -13 6 0 8 -9 20 -20 28 -14 10 -16 16 -7 22 9 6 9 8 0 8 -7 0 -13 7 -13 16
0 8 -5 12 -10 9 -6 -4 -10 5 -10 20 0 21 -4 26 -16 21 -12 -4 -15 -2 -10 9 3
8 1 15 -5 15 -6 0 -8 4 -4 9 3 5 1 12 -5 16 -6 4 -8 10 -5 15 3 5 0 12 -6 16
-8 5 -9 3 -4 -6 5 -9 4 -11 -3 -6 -7 4 -12 15 -12 25 0 10 -7 24 -15 31 -8 7
-12 16 -9 21 3 5 -2 12 -10 15 -9 3 -16 15 -16 26 0 10 -5 16 -10 13 -6 -3
-10 3 -10 14 0 12 -5 21 -10 21 -6 0 -9 3 -9 8 4 21 -2 32 -14 26 -8 -5 -7 -2
2 9 12 15 12 17 -4 10 -14 -5 -17 -3 -13 9 4 9 -3 22 -17 32 -13 10 -21 24
-18 32 3 8 0 14 -6 14 -6 0 -11 7 -11 16 0 8 -4 13 -8 10 -4 -2 -9 5 -9 17 -1
12 -7 23 -13 25 -5 2 -10 13 -10 25 0 11 -3 17 -7 14 -8 -9 -43 64 -37 75 3 4
-2 5 -10 2 -11 -4 -14 0 -11 15 2 14 -1 21 -11 21 -8 0 -14 9 -14 19 0 11 -5
23 -11 26 -6 4 -8 13 -5 21 3 9 0 11 -11 7 -11 -4 -14 -2 -9 5 4 7 2 12 -3 12
-6 0 -11 9 -11 20 0 11 -7 23 -16 27 -13 5 -13 7 -2 14 10 7 9 9 -4 9 -10 0
-18 7 -18 16 0 8 -7 22 -16 31 -8 9 -13 22 -10 29 3 8 0 11 -9 8 -10 -4 -12 1
-8 18 6 20 4 21 -9 11 -12 -11 -14 -9 -13 10 3 29 -5 42 -16 26 -6 -10 -9 -5
-10 16 -1 17 -1 34 0 38 1 5 -3 6 -8 3 -5 -4 -12 3 -16 14 -4 11 -11 17 -17
14 -6 -4 -8 -2 -5 4 10 15 -3 43 -16 35 -6 -4 -8 0 -4 10 4 10 2 17 -4 17 -6
0 -8 7 -5 16 3 8 2 12 -4 9 -6 -3 -10 0 -10 8 0 8 -12 27 -27 42 -16 16 -21
25 -13 20 11 -6 10 -3 -3 12 -9 11 -14 23 -10 26 3 4 1 7 -5 7 -7 0 -12 7 -12
16 0 8 -4 12 -10 9 -6 -3 -7 1 -4 9 3 9 1 16 -6 16 -6 0 -8 5 -5 10 3 6 -1 13
-9 16 -9 3 -16 15 -16 26 0 10 -5 16 -10 13 -9 -5 -15 15 -11 37 0 5 -5 8 -13
8 -9 0 -12 7 -9 19 3 13 -2 21 -16 26 -12 4 -18 12 -14 20 3 8 -2 18 -11 21
-9 3 -13 10 -10 15 3 5 0 9 -7 9 -7 0 -9 3 -6 7 4 3 -5 22 -20 41 -15 20 -20
32 -12 28 8 -4 6 -1 -5 8 -10 8 -15 19 -11 25 3 6 -1 11 -9 11 -9 0 -16 9 -16
21 0 11 -5 17 -10 14 -6 -3 -10 3 -10 14 0 12 -6 21 -12 21 -9 0 -8 4 2 10 13
8 12 10 -3 10 -10 0 -16 4 -13 9 3 5 -1 12 -10 15 -9 3 -14 11 -12 18 2 6 -6
22 -19 36 -13 14 -23 31 -23 39 0 8 -7 21 -15 30 -8 8 -13 19 -10 24 4 5 -1 9
-9 9 -9 0 -15 3 -15 8 4 22 -2 42 -11 37 -6 -4 -10 7 -10 25 0 18 -6 33 -16
37 -8 3 -13 12 -9 20 3 10 1 13 -9 10 -8 -3 -13 1 -13 11 0 35 -3 43 -15 36
-7 -5 -9 -2 -5 8 3 9 0 21 -6 27 -6 6 -7 11 -3 11 5 0 2 8 -5 17 -12 14 -12
16 1 9 13 -7 13 -6 0 6 -8 7 -16 26 -18 43 -2 16 -8 33 -14 36 -6 4 -8 14 -5
23 4 10 1 19 -9 23 -13 5 -13 7 -2 14 10 6 10 11 0 21 -6 6 -12 27 -12 46 0
24 -3 31 -12 26 -9 -5 -9 -2 1 9 9 12 10 17 2 17 -7 0 -12 16 -11 43 1 86 -3
122 -14 136 -8 11 -8 13 2 7 6 -4 12 -3 12 3 0 5 -5 13 -11 17 -8 4 -7 9 2 15
9 6 10 12 4 17 -13 9 -19 35 -6 28 4 -3 9 5 9 19 0 14 -5 22 -10 19 -6 -4 -5
4 2 16 10 18 9 24 -1 31 -12 7 -12 9 0 9 8 0 11 7 8 19 -2 10 0 25 4 34 6 10
5 18 -1 22 -6 4 -7 11 -4 17 4 6 9 5 15 -3 6 -10 8 -7 6 8 0 12 -6 19 -12 16
-5 -4 -1 4 9 16 20 22 20 22 0 15 -18 -7 -18 -7 -1 13 9 11 14 23 11 26 -4 4
-1 14 7 24 12 15 12 16 -1 8 -12 -6 -13 -5 -3 5 10 10 10 17 1 27 -9 11 -8 13
3 11 9 -2 14 6 13 25 0 16 5 27 13 27 7 0 13 5 13 11 0 5 -4 8 -9 4 -5 -3 -3
8 6 25 8 17 16 39 18 48 2 9 4 18 4 20 1 1 1 5 0 8 0 4 4 10 9 13 6 3 12 15
14 26 1 11 9 26 16 33 7 8 10 18 6 23 -3 5 2 12 10 15 9 3 13 10 10 15 -3 5 1
9 8 9 10 0 10 2 -1 9 -11 7 -9 10 7 15 14 5 19 13 17 27 -2 11 0 17 4 14 5 -2
11 5 14 16 4 14 10 18 19 14 10 -6 10 -5 1 5 -9 10 -8 16 3 27 8 8 12 19 8 24
-3 5 0 8 7 7 7 -2 13 2 14 9 0 7 8 21 17 32 12 14 13 21 5 25 -7 2 -4 5 6 5
10 1 16 5 13 10 -3 5 1 14 9 21 8 7 12 16 9 21 -3 5 2 12 11 15 9 4 14 13 10
21 -4 11 -1 13 11 9 14 -5 15 -4 4 9 -10 12 -10 15 4 15 9 0 15 3 14 8 -3 12
26 66 42 79 8 7 11 13 7 13 -5 0 -1 7 7 16 9 8 14 19 11 24 -3 4 2 11 11 14 9
3 14 12 11 20 -3 8 5 22 18 32 17 13 21 20 12 26 -8 5 -6 8 6 8 10 0 15 5 12
10 -3 6 1 17 10 26 9 9 14 23 10 32 -5 12 -3 13 10 2 9 -7 15 -9 14 -4 -5 28
3 54 17 54 8 0 12 5 9 10 -3 6 -2 10 4 10 6 0 8 6 5 14 -3 8 3 20 14 27 11 7
18 18 15 26 -3 7 2 16 12 19 9 4 14 13 11 20 -3 7 4 20 14 27 11 8 17 17 13
20 -3 4 -1 7 6 7 7 0 11 6 8 14 -7 17 16 39 28 28 5 -4 5 1 2 11 -4 11 -1 20
8 23 8 4 13 10 10 14 -3 5 2 16 11 25 9 8 17 26 18 40 1 17 4 21 13 13 9 -7
11 -4 8 12 -3 16 0 20 10 16 9 -3 12 1 10 14 -2 10 3 21 11 24 8 3 14 14 14
25 0 11 6 26 13 33 6 7 21 30 31 50 11 20 23 35 28 32 4 -3 5 3 1 12 -5 13 -3
15 7 9 9 -5 11 -4 6 4 -4 6 2 24 13 40 12 16 21 34 21 41 0 6 5 8 10 5 6 -4
10 5 10 20 0 15 4 24 10 20 6 -3 10 1 10 9 0 9 5 16 10 16 6 0 10 11 10 25 0
14 5 25 10 25 6 0 10 7 10 15 0 8 5 15 10 15 6 0 10 6 10 13 0 7 8 17 19 24
12 7 17 21 16 38 -3 23 -1 24 13 13 11 -9 14 -9 8 -1 -4 7 6 36 23 66 17 30
27 58 23 61 -3 4 1 4 11 0 13 -5 16 -2 11 10 -4 10 0 18 10 22 9 3 16 10 16
16 0 5 -6 6 -12 2 -7 -4 0 5 15 19 15 15 26 31 23 36 -3 5 1 12 10 15 9 3 14
12 11 19 -2 6 3 18 12 25 10 8 10 11 2 6 -9 -5 -12 -3 -7 4 4 7 13 12 19 12 7
0 14 10 14 22 1 13 7 24 13 26 5 2 10 12 10 23 0 10 4 19 9 19 5 0 16 16 25
35 9 19 21 37 26 40 6 3 10 15 10 26 0 11 4 18 8 15 4 -2 14 4 21 16 7 11 8
17 2 13 -16 -9 -13 -1 8 23 10 12 21 18 25 15 4 -4 4 0 1 9 -3 8 1 22 9 31 8
8 12 17 9 21 -4 3 -1 6 6 6 7 0 9 5 6 10 -3 6 -1 10 4 10 6 0 11 7 11 15 0 8
6 15 13 15 8 0 7 4 -3 10 -12 8 -10 10 10 10 20 0 22 2 10 10 -12 7 -12 10 -1
10 7 0 11 6 8 14 -4 10 -1 13 8 10 10 -4 12 1 8 18 -3 13 -2 20 2 15 11 -10
45 42 38 60 -3 8 0 13 8 11 8 -2 13 3 11 10 -1 6 3 12 9 12 5 0 7 5 4 10 -3 6
-1 10 4 10 6 0 11 9 11 21 0 11 5 17 10 14 9 -5 12 8 9 32 0 3 6 10 15 15 9 5
14 13 11 19 -4 5 1 9 9 9 10 0 13 7 11 21 -3 15 0 19 11 15 8 -3 12 -1 9 4 -9
14 14 52 27 44 6 -4 8 -3 5 4 -9 14 3 43 14 36 8 -4 14 25 10 48 0 5 2 7 7 7
4 -1 14 -1 22 0 13 1 13 2 0 11 -13 9 -13 12 2 20 10 7 15 17 11 27 -4 10 -2
14 4 10 6 -4 14 5 18 20 5 21 8 24 16 12 6 -10 9 -4 9 21 0 26 3 31 10 20 8
-12 10 -11 10 6 0 12 7 24 15 28 9 3 12 12 8 23 -6 16 -5 16 10 5 14 -12 16
-11 12 7 -2 14 1 21 11 21 8 0 12 5 9 10 -3 6 2 10 12 11 10 0 13 3 6 6 -8 3
-4 13 12 31 14 15 25 31 25 37 0 5 5 3 10 -5 8 -12 10 -10 10 8 0 13 4 20 10
17 6 -3 10 -1 10 5 0 12 30 45 39 44 11 -1 30 23 24 30 -4 3 1 6 10 6 9 0 17
7 17 15 0 8 6 14 13 12 6 -1 11 4 9 11 -1 8 2 11 7 8 5 -4 12 -2 16 4 4 6 11
8 16 5 5 -3 6 2 2 11 -5 14 -2 16 15 12 15 -4 19 -2 15 8 -3 8 1 14 11 14 9 0
16 5 16 10 0 6 6 10 13 10 8 0 22 9 32 20 10 11 24 20 31 20 7 0 17 6 21 14 8
14 12 16 34 16 5 0 7 5 3 11 -4 7 -1 10 7 7 7 -2 22 3 32 13 11 10 27 16 37
14 14 -3 17 1 13 12 -5 12 -2 15 10 10 9 -3 17 -2 17 4 0 6 5 7 10 4 6 -3 10
-2 10 2 0 5 10 10 22 10 13 1 24 7 26 13 2 5 11 10 21 10 9 0 23 6 30 13 11
10 13 9 7 -3 -5 -9 -2 -9 7 2 8 10 17 15 20 11 4 -3 13 0 22 7 12 10 15 10 15
-1 0 -8 6 -5 15 7 8 10 15 15 15 10 0 -4 11 -1 24 8 17 10 27 12 31 5 5 -7 14
-4 26 7 12 10 19 12 19 5 0 -7 10 -5 27 6 17 11 24 13 19 5 -7 -11 -2 -11 20
1 16 7 53 13 81 13 34 -1 55 4 58 12 2 6 7 12 10 12 4 0 4 -4 1 -9z m4329
-321 c3 -5 1 -10 -4 -10 -6 0 -11 5 -11 10 0 6 2 10 4 10 3 0 8 -4 11 -10z
m-7205 -4680 c0 -5 -2 -10 -4 -10 -3 0 -8 5 -11 10 -3 6 -1 10 4 10 6 0 11 -4
11 -10z m5600 -1433 c-5 -4 -184 -40 -260 -52 -19 -3 -69 -12 -110 -20 -103
-21 -112 -23 -154 -29 -19 -3 -55 -10 -78 -15 -24 -6 -59 -13 -78 -16 -19 -3
-84 -17 -145 -31 -311 -69 -458 -151 -481 -267 -6 -35 24 -110 60 -149 73 -77
250 -173 641 -348 331 -148 495 -232 640 -328 170 -112 263 -207 305 -311 34
-84 1 -236 -80 -372 -71 -120 -230 -321 -230 -290 0 7 -5 9 -10 6 -6 -4 -8
-11 -5 -16 3 -5 -1 -6 -9 -3 -9 3 -13 10 -10 15 3 5 -2 6 -10 3 -9 -3 -14 -9
-12 -13 3 -4 -11 -5 -30 -3 -18 2 -31 8 -28 13 3 5 -2 6 -10 3 -9 -3 -14 -10
-11 -14 3 -5 -8 -5 -25 0 -19 5 -32 5 -36 -2 -4 -6 -10 -6 -16 0 -6 6 -17 8
-24 5 -8 -3 -22 1 -31 8 -12 10 -15 10 -9 2 5 -9 -1 -13 -19 -13 -15 0 -24 4
-20 10 3 6 -1 7 -9 4 -9 -3 -13 -10 -10 -15 3 -5 -1 -6 -8 -4 -25 10 -89 11
-95 3 -3 -5 -14 -1 -26 9 -11 10 -17 12 -13 6 5 -9 -1 -13 -19 -13 -15 0 -24
4 -20 10 3 6 -1 7 -9 4 -9 -3 -14 -9 -12 -13 7 -10 -98 0 -112 11 -9 8 -11 7
-9 -3 2 -8 2 -11 0 -6 -3 4 -9 5 -14 1 -5 -3 -9 -3 -9 -1 0 3 70 55 155 116
85 62 155 115 155 120 0 8 -60 91 -66 91 -5 0 -114 -78 -241 -172 -91 -66 -93
-69 -76 -87 10 -11 27 -35 37 -53 l19 -33 -23 20 c-13 11 -20 15 -17 9 4 -7 0
-15 -9 -18 -11 -4 -15 -2 -11 7 3 8 -1 14 -9 14 -7 0 -11 -4 -8 -9 8 -13 -41
-9 -55 4 -11 11 -12 10 -6 -2 6 -12 5 -13 -6 -2 -16 14 -49 16 -49 2 0 -13
-81 -10 -99 4 -11 8 -13 8 -7 -1 5 -9 -1 -13 -19 -13 -15 0 -24 4 -20 10 3 6
-1 7 -9 4 -9 -3 -14 -10 -11 -14 3 -5 -7 -5 -22 -1 -16 4 -34 6 -41 4 -7 -3
-20 1 -29 9 -12 9 -15 9 -9 1 5 -9 -1 -13 -19 -13 -15 0 -24 4 -20 10 3 6 -1
7 -9 4 -9 -3 -14 -10 -11 -14 7 -11 -36 0 -54 14 -11 8 -13 8 -7 -1 5 -9 -1
-13 -19 -13 -15 0 -24 4 -20 10 3 6 -1 7 -9 4 -9 -3 -14 -9 -11 -13 6 -11 -58
0 -74 13 -12 9 -13 8 -7 -2 6 -11 1 -13 -20 -11 -16 2 -34 0 -41 -4 -6 -4 -14
-3 -18 2 -3 6 -12 8 -20 4 -9 -3 -23 1 -32 8 -12 10 -15 10 -9 1 5 -8 0 -12
-13 -12 -12 0 -21 5 -21 12 0 6 -7 3 -15 -8 -8 -10 -15 -14 -15 -8 0 6 -14 9
-32 8 -24 -3 -28 -1 -13 4 34 13 96 41 200 90 402 187 562 402 457 614 -37 75
-142 193 -269 299 -48 41 -90 76 -93 79 -3 3 -81 66 -175 140 -93 73 -182 145
-199 159 -71 63 -142 128 -169 159 -74 80 -88 98 -118 156 -27 52 -31 68 -25
100 15 79 137 164 337 234 85 30 339 95 413 107 21 3 48 7 60 10 12 2 39 6 61
9 22 2 76 9 120 15 77 10 123 15 238 26 28 3 72 8 97 10 25 3 85 8 135 11 49
2 90 6 92 7 1 2 109 4 240 6 131 1 236 1 233 -2z m710 -2237 c0 -5 -2 -10 -4
-10 -3 0 -8 5 -11 10 -3 6 -1 10 4 10 6 0 11 -4 11 -10z"/>
<path d="M3188 9363 c7 -3 16 -2 19 1 4 3 -2 6 -13 5 -11 0 -14 -3 -6 -6z"/>
<path d="M4285 8156 c-120 -30 -245 -128 -297 -233 l-26 -52 -21 57 c-26 72
-74 130 -138 165 -83 45 -155 56 -352 54 l-176 -2 0 -248 c0 -224 -1 -246 -15
-225 -8 12 -28 37 -44 56 -27 31 -28 33 -11 52 9 10 23 36 31 57 41 115 -13
232 -130 285 -47 21 -67 23 -272 26 l-222 4 0 -436 0 -436 212 0 c165 0 224 4
267 16 65 19 131 67 156 112 10 17 20 32 23 32 3 0 4 -36 4 -80 l-2 -80 142 0
142 0 -1 105 c-1 58 1 102 5 98 3 -5 32 -52 64 -105 l57 -98 165 0 166 0 -20
33 c-11 17 -47 81 -82 141 l-62 108 30 32 c16 17 36 41 44 54 15 22 15 22 21
-18 9 -68 69 -180 127 -237 92 -90 196 -134 320 -134 147 -1 294 74 369 188
l30 45 3 -103 3 -104 60 -12 c66 -14 249 -18 280 -7 60 21 107 47 134 75 l31
31 0 -41 c0 -22 4 -42 8 -45 18 -11 148 -27 226 -27 124 0 224 40 271 111 11
16 22 30 25 30 3 0 5 -26 5 -57 l0 -58 148 -3 147 -3 1 198 c1 189 1 195 14
138 29 -133 81 -207 198 -288 99 -67 286 -89 418 -47 73 23 83 24 74 10 -4 -6
43 -10 133 -10 l140 0 15 38 15 37 130 1 130 0 13 -38 12 -38 139 0 c76 0 138
1 138 3 0 1 -73 196 -163 432 l-163 430 -106 3 -106 3 -20 -53 c-92 -244 -245
-645 -251 -656 -6 -10 -23 12 -56 72 -47 83 -49 85 -69 71 -45 -33 -93 -48
-152 -48 -109 -1 -184 65 -191 166 -5 64 16 108 70 151 36 29 45 31 115 31 63
0 85 -5 119 -24 24 -14 45 -23 47 -20 5 5 103 175 122 211 14 27 14 28 -37 54
-202 102 -443 76 -587 -62 -62 -61 -109 -143 -127 -226 -13 -61 -13 -58 -14
135 l-1 197 -149 0 -149 0 0 -232 c0 -302 1 -279 -19 -241 -20 37 -77 98 -148
160 -60 54 -52 71 37 75 l61 3 -1 100 c-1 144 -1 142 -14 143 -7 1 -60 4 -118
6 -85 4 -115 2 -158 -13 -104 -36 -163 -108 -170 -211 -8 -112 28 -178 157
-284 43 -37 82 -73 85 -81 3 -9 -3 -24 -15 -36 -17 -17 -29 -19 -77 -14 -104
9 -109 12 -115 55 -11 82 -75 169 -202 273 -25 21 -28 27 -16 41 10 11 30 16
72 16 l58 0 3 120 3 120 -35 7 c-19 4 -80 8 -135 8 -90 0 -106 -3 -157 -28
-69 -34 -113 -84 -129 -148 l-12 -47 -27 36 c-112 152 -299 222 -475 178z
m-1323 -233 c8 -10 14 -25 13 -33 -1 -8 -3 -22 -3 -32 -2 -19 -50 -38 -72 -29
-11 4 -15 20 -14 56 1 28 2 51 3 53 5 10 61 -2 73 -15z m673 -27 c26 -11 35
-22 40 -49 4 -19 5 -45 3 -57 -4 -30 -44 -58 -88 -62 l-35 -3 -1 93 c0 90 0
92 23 92 13 0 39 -6 58 -14z m834 -24 c148 -75 124 -293 -35 -331 -141 -33
-261 100 -210 233 38 99 153 146 245 98z m407 -153 c10 -12 47 -44 82 -71 79
-63 89 -81 62 -108 -15 -15 -29 -19 -64 -16 -63 6 -136 18 -136 22 0 1 7 33
16 71 8 37 14 80 12 95 -5 33 2 35 28 7z m2438 -146 c7 -22 5 -23 -48 -23
l-55 0 24 65 c14 36 25 69 26 73 1 8 43 -83 53 -115z m-4326 37 c25 -24 28
-66 7 -94 -16 -22 -92 -39 -102 -23 -3 6 -7 39 -7 74 l-1 63 41 0 c27 0 48 -7
62 -20z"/>
<path d="M4627 6638 c-26 -21 -38 -66 -44 -173 -3 -55 -7 -101 -8 -103 -3 -4
-25 -7 -115 -17 -30 -3 -70 -8 -88 -11 l-32 -6 5 65 c3 36 12 88 20 114 20 65
19 90 -4 103 -31 16 -59 12 -75 -13 -14 -20 -19 -63 -28 -232 -1 -36 -8 -55
-23 -67 l-20 -16 21 -29 c16 -21 23 -51 29 -108 7 -86 23 -115 60 -115 29 0
49 22 34 37 -6 6 -13 47 -16 92 -5 89 -7 86 61 96 21 3 41 7 45 9 3 2 34 7 69
11 60 6 62 5 63 -17 1 -13 3 -59 4 -103 3 -68 7 -82 25 -97 27 -22 34 -22 55
-1 12 12 15 25 10 52 -11 58 -16 171 -7 171 5 0 16 6 26 13 16 12 16 15 -10
40 -26 26 -26 30 -21 108 4 61 10 88 26 110 24 32 16 70 -18 88 -25 14 -24 14
-44 -1z"/>
<path d="M5373 6627 c-24 -12 -45 -28 -48 -34 -7 -19 5 -43 22 -43 12 0 13
-12 8 -62 -3 -35 -8 -85 -10 -113 -2 -27 -4 -53 -4 -56 -1 -4 -12 -10 -25 -13
-13 -3 -27 -13 -30 -22 -7 -19 19 -54 41 -54 7 0 13 -3 14 -7 0 -5 2 -38 4
-75 5 -80 16 -105 51 -114 39 -10 61 16 45 53 -6 16 -14 53 -16 81 -4 58 1 61
65 39 47 -17 178 -107 213 -146 29 -33 35 -35 56 -22 10 6 12 19 7 44 -7 39
-55 88 -130 132 -25 15 -46 30 -46 33 0 4 21 21 46 37 71 47 89 78 89 155 0
54 -4 71 -25 98 -32 43 -110 80 -185 88 -33 3 -67 10 -77 15 -20 11 -13 12
-65 -14z m204 -88 c75 -24 95 -119 37 -180 -43 -45 -110 -72 -153 -62 -34 8
-36 11 -36 48 -1 54 26 199 37 206 12 8 71 1 115 -12z"/>
<path d="M6975 6636 c-17 -7 -36 -20 -44 -30 -13 -15 -15 -15 -27 3 -17 24
-49 32 -69 17 -13 -9 -16 -49 -18 -276 -1 -146 1 -277 5 -292 8 -28 13 -29
165 -29 94 1 171 76 222 216 16 45 23 93 23 166 0 116 -54 205 -140 229 -48
13 -80 12 -117 -4z m114 -66 c35 -18 52 -67 55 -150 7 -177 -76 -330 -179
-330 -64 0 -74 28 -70 211 3 140 10 172 51 227 41 52 94 69 143 42z"/>
<path d="M2943 6623 c-107 -37 -184 -184 -178 -344 3 -96 20 -143 66 -188 99
-95 263 -82 346 28 110 144 75 412 -64 494 -41 24 -117 28 -170 10z m130 -74
c16 -7 40 -32 55 -58 24 -42 27 -55 27 -146 0 -89 -3 -106 -28 -157 -22 -45
-36 -61 -71 -77 -51 -25 -87 -26 -132 -5 -52 25 -78 82 -80 174 -3 145 46 244
137 279 27 10 50 7 92 -10z"/>
<path d="M3625 6616 c-33 -33 -46 -108 -51 -295 -3 -91 -6 -167 -8 -169 -20
-19 -101 197 -132 350 -9 45 -23 91 -32 101 -18 20 -84 23 -99 5 -11 -13 -25
-241 -26 -408 -1 -136 28 -187 82 -142 21 16 21 19 6 48 -13 26 -14 55 -10
160 3 71 6 135 7 142 2 24 15 -3 38 -78 23 -77 78 -202 103 -232 24 -30 68
-48 89 -37 41 22 51 66 55 244 3 109 10 190 19 225 28 99 28 97 4 103 -15 4
-29 -2 -45 -17z"/>
<path d="M4935 6624 c-33 -7 -76 -15 -95 -18 -20 -2 -48 -9 -63 -15 -24 -10
-27 -15 -28 -63 -8 -394 -5 -419 47 -471 38 -39 79 -42 176 -17 45 13 97 24
113 25 17 1 35 3 41 4 18 2 26 33 12 47 -24 23 -78 23 -171 0 -92 -23 -135
-20 -138 8 -1 6 -3 39 -4 73 -3 51 0 63 13 67 33 10 91 18 141 20 59 3 72 12
60 43 -11 30 -51 38 -111 24 -27 -6 -61 -11 -75 -11 l-25 0 4 90 c2 65 7 93
17 100 22 13 139 33 201 34 30 1 61 5 68 9 19 13 14 35 -11 52 -27 18 -84 17
-172 -1z"/>
<path d="M5984 6623 c-79 -27 -153 -128 -173 -238 -5 -27 -8 -81 -6 -120 5
-119 45 -181 138 -219 177 -72 341 67 340 289 0 117 -55 234 -130 278 -41 23
-117 28 -169 10z m129 -74 c16 -7 40 -32 55 -58 24 -42 27 -55 27 -146 0 -89
-3 -106 -28 -157 -22 -45 -36 -61 -71 -77 -79 -39 -143 -22 -184 48 -24 41
-27 56 -27 136 1 133 38 215 116 253 42 21 63 21 112 1z"/>
<path d="M3940 6613 c-95 -14 -120 -24 -120 -49 0 -23 39 -36 98 -32 65 3 60
20 47 -137 -12 -143 -12 -256 -1 -304 9 -36 17 -47 42 -57 46 -19 61 -5 46 43
-12 38 -10 334 2 398 17 84 8 77 99 73 78 -3 82 -2 85 19 8 55 -116 74 -298
46z"/>
<path d="M6527 6610 c-39 -31 -113 -187 -167 -350 -64 -195 -63 -194 -41 -214
11 -10 30 -16 43 -14 20 3 23 9 26 51 4 60 12 64 155 70 l107 5 0 -44 c0 -37
4 -46 23 -53 45 -17 83 15 64 56 -9 21 -8 27 6 38 21 15 23 65 3 65 -21 0 -25
11 -32 72 -3 29 -7 64 -10 78 -2 14 -7 40 -10 58 -10 63 -45 147 -71 174 -32
33 -61 35 -96 8z m69 -123 c7 -21 16 -56 19 -80 3 -23 11 -71 16 -106 5 -35 8
-65 7 -66 -2 -1 -47 -5 -101 -8 -54 -4 -102 -9 -107 -12 -6 -4 -10 -3 -10 0 0
12 69 184 95 236 47 93 60 98 81 36z"/>
<path d="M4130 5799 c-19 -11 -70 -62 -112 -113 -43 -50 -88 -103 -100 -118
-13 -14 -32 -37 -42 -50 -11 -12 -51 -59 -89 -103 -39 -44 -93 -107 -121 -139
-28 -32 -59 -67 -68 -77 -10 -11 -18 -21 -18 -23 0 -4 -46 -57 -115 -133 -28
-30 -42 -35 -186 -66 -86 -19 -167 -41 -180 -51 -13 -9 -77 -103 -141 -209
-64 -105 -120 -197 -125 -203 -4 -5 -14 -21 -22 -35 -8 -13 -50 -82 -94 -154
-44 -71 -112 -184 -152 -250 -40 -66 -94 -154 -119 -195 l-47 -75 53 -25 c29
-14 55 -28 56 -32 2 -5 11 -8 20 -8 10 0 31 -9 49 -19 24 -15 34 -17 41 -8 5
7 128 206 272 442 145 237 279 456 299 488 20 31 41 68 48 80 11 20 34 28 170
57 l158 34 50 52 c28 28 71 76 96 105 115 133 119 137 163 148 102 25 237 156
312 304 13 26 28 47 32 47 4 0 36 -43 72 -95 36 -52 74 -107 85 -122 128 -178
265 -373 265 -377 0 -4 -8 -2 -17 3 -59 31 -422 175 -428 170 -6 -7 26 -100
52 -146 38 -68 107 -131 203 -185 173 -98 202 -121 272 -223 34 -49 75 -107
91 -127 16 -21 24 -38 19 -38 -8 0 -152 48 -202 67 -8 3 -19 7 -25 8 -5 2 -73
26 -149 54 -76 28 -141 50 -142 48 -5 -5 30 -107 51 -147 21 -41 140 -160 160
-160 3 0 22 -11 43 -24 20 -12 42 -24 47 -26 18 -5 89 -52 133 -87 53 -43 154
-188 124 -179 -111 36 -232 -52 -325 -233 -24 -47 -47 -97 -51 -111 -5 -14
-10 -29 -12 -35 -15 -40 -44 -178 -49 -231 -6 -72 -12 -70 83 -28 29 13 55 24
57 24 11 0 192 105 236 137 26 18 51 33 57 33 6 0 12 3 14 8 2 4 37 34 78 67
148 119 298 281 412 446 53 77 138 233 163 301 19 52 24 58 199 243 67 72 137
147 155 168 18 20 36 37 41 37 4 0 42 -46 85 -102 44 -57 81 -105 85 -108 3
-3 25 -32 50 -65 25 -33 49 -63 55 -67 5 -4 7 -8 4 -8 -3 0 7 -15 22 -32 92
-105 189 -233 185 -245 -3 -7 -1 -13 5 -13 6 0 8 -4 5 -8 -2 -4 2 -21 9 -37
18 -37 38 -88 39 -97 1 -3 4 -10 9 -14 4 -4 7 -15 7 -25 0 -9 4 -19 9 -21 11
-4 43 -108 33 -108 -4 0 -47 31 -96 68 -49 37 -96 72 -105 77 -9 6 -18 13 -21
17 -3 4 -32 23 -65 43 -55 33 -115 56 -157 60 -57 6 32 -148 146 -251 57 -52
192 -143 221 -148 5 -2 28 -10 50 -20 99 -44 172 -60 325 -71 36 -2 74 -6 85
-9 78 -17 237 -123 352 -235 57 -56 177 -146 221 -167 75 -35 83 -31 63 31
-44 138 -131 228 -374 390 -95 62 -181 122 -192 132 -11 10 -47 59 -80 108
-33 50 -88 127 -122 172 -35 46 -63 89 -63 96 0 19 31 110 42 122 5 6 32 -16
71 -57 61 -65 244 -261 301 -322 15 -17 81 -87 146 -156 65 -69 131 -139 146
-156 117 -127 164 -174 172 -174 9 0 132 91 163 121 18 18 35 -4 -221 269 -58
62 -116 124 -130 139 -14 15 -80 85 -147 156 -66 72 -133 144 -149 160 -15 17
-79 86 -143 154 -64 67 -127 135 -141 151 -75 82 -185 63 -229 -39 -11 -28
-21 -54 -21 -60 0 -6 -5 -11 -10 -11 -6 0 -9 -3 -9 -7 5 -34 -17 -46 -28 -15
-4 9 -14 24 -23 32 -9 8 -55 65 -103 125 -49 61 -93 117 -100 125 -7 8 -46 60
-87 115 -41 55 -79 105 -85 111 -5 6 -32 40 -60 77 -49 65 -70 78 -130 82 -46
4 -76 -12 -125 -64 -25 -26 -106 -112 -180 -191 -74 -79 -169 -180 -211 -224
-42 -45 -90 -96 -107 -114 l-31 -33 -130 183 c-72 101 -137 192 -145 203 -8
11 -109 153 -225 315 -115 162 -214 300 -220 307 -6 7 -11 15 -11 18 0 4 -6
12 -12 19 -7 8 -20 24 -28 36 -8 13 -25 35 -37 50 -13 15 -23 32 -23 38 0 6
-4 12 -8 14 -5 2 -28 32 -53 68 -24 36 -47 67 -50 70 -3 3 -17 22 -30 42 -55
81 -125 106 -189 67z"/>
<path d="M3555 4403 c-72 -15 -184 -101 -270 -208 -16 -21 -71 -96 -121 -169
-51 -72 -104 -146 -119 -164 -29 -34 -113 -92 -230 -157 -127 -70 -219 -185
-240 -298 l-7 -35 149 59 c81 33 162 66 179 74 16 8 66 29 110 48 314 136 719
349 683 361 -8 2 -52 4 -99 4 -133 0 -121 -5 -103 50 9 26 23 57 31 70 8 12
12 22 8 22 -3 0 3 15 14 33 11 17 20 40 20 50 0 9 5 17 12 17 6 0 9 3 5 6 -3
3 -2 17 3 30 24 62 31 143 16 163 -6 8 -10 16 -8 18 1 1 2 10 2 18 0 15 -1 16
-35 8z"/>
<path d="M5709 3686 c-3 -3 -20 -8 -39 -11 -19 -3 -49 -10 -66 -16 -17 -5 -42
-12 -55 -14 -44 -9 -127 -56 -168 -95 -38 -37 -77 -102 -87 -145 -12 -54 -17
-92 -15 -122 1 -19 6 -21 34 -18 182 23 418 231 444 390 5 32 4 35 -19 35 -14
0 -27 -2 -29 -4z"/>
<path d="M1695 2220 c3 -5 8 -10 11 -10 2 0 4 5 4 10 0 6 -5 10 -11 10 -5 0
-7 -4 -4 -10z"/>
<path d="M4835 2850 c-96 -28 -189 -63 -228 -86 -18 -10 -18 -13 7 -62 l26
-51 72 30 c39 16 115 41 167 55 53 14 99 29 103 32 11 11 -18 107 -33 109 -8
1 -59 -11 -114 -27z"/>
<path d="M4417 2651 c-97 -116 -96 -262 2 -381 l29 -34 41 42 c44 45 49 57 27
69 -8 4 -23 26 -35 48 -27 54 -21 106 19 163 l31 45 -37 38 c-21 22 -41 39
-45 39 -4 0 -18 -13 -32 -29z"/>
<path d="M4646 2165 c-20 -24 -36 -47 -35 -52 0 -8 272 -225 290 -231 10 -4
52 39 70 70 7 14 -17 37 -140 137 l-149 120 -36 -44z"/>
<path d="M5066 1830 l-35 -49 137 -93 c75 -51 141 -95 147 -97 5 -2 25 -16 43
-29 l34 -26 18 24 c10 13 25 36 34 52 l17 27 -133 88 c-73 48 -135 90 -138 93
-3 3 -24 17 -47 32 l-42 27 -35 -49z"/>
<path d="M5580 1498 c-17 -27 -30 -51 -28 -53 2 -1 21 -15 43 -29 61 -41 126
-107 142 -144 14 -34 10 -72 -13 -109 -13 -21 -11 -24 29 -51 23 -16 47 -32
54 -35 15 -9 52 87 54 145 6 111 -59 206 -203 297 l-47 30 -31 -51z"/>
</g>
</svg>
